<?xml version="1.0" standalone="no"?>
<!DOCTYPE svg PUBLIC "-//W3C//DTD SVG 20010904//EN"
 "http://www.w3.org/TR/2001/REC-SVG-20010904/DTD/svg10.dtd">
<svg version="1.0" xmlns="http://www.w3.org/2000/svg"
 width="828.000000pt" height="953.000000pt" viewBox="0 0 828.000000 953.000000"
 preserveAspectRatio="xMidYMid meet">
<metadata>
Created by potrace 1.16, written by Peter Selinger 2001-2019
</metadata>
<g transform="translate(0.000000,953.000000) scale(0.100000,-0.100000)"
fill="#000000" stroke="none">
<path d="M1 9478 c1 -29 4 -41 6 -25 l4 27 150 0 c114 0 154 -3 164 -14 10 -9
11 -16 3 -24 -7 -7 1 -13 28 -18 22 -3 42 -8 46 -11 15 -8 -5 -31 -30 -36 -15
-2 -35 -8 -45 -12 -14 -6 -20 -2 -24 14 -7 27 -15 27 -28 -2 -17 -38 -7 -67
23 -66 15 0 63 -2 108 -6 59 -6 83 -4 88 4 6 9 11 9 22 0 11 -9 14 -8 14 4 0
16 52 33 69 23 5 -4 12 3 16 14 8 24 21 26 29 5 9 -24 26 -17 26 10 0 14 -8
33 -19 44 -12 12 -17 27 -14 45 8 39 19 32 32 -21 27 -108 52 -128 91 -73 14
20 30 30 48 30 23 0 24 -1 8 -13 -13 -10 -15 -18 -7 -37 7 -18 10 -20 10 -7 1
9 8 17 16 17 8 0 15 9 15 20 0 11 7 20 16 20 9 0 12 -5 8 -12 -5 -8 -1 -7 10
1 12 10 16 24 14 43 -5 33 7 37 22 7 16 -28 47 -59 54 -52 3 4 6 3 6 -2 0 -4
-8 -14 -17 -22 -14 -11 -15 -16 -5 -20 10 -4 9 -9 -5 -20 -17 -13 -16 -14 10
-10 15 2 27 1 27 -2 0 -18 -29 -31 -70 -31 -25 0 -51 -5 -58 -12 -8 -8 -15 -8
-25 1 -8 6 -36 10 -61 9 -45 -3 -47 -4 -43 -30 2 -16 0 -29 -5 -29 -4 -1 -11
-2 -15 -3 -5 0 -22 -11 -40 -24 -45 -32 -108 -30 -139 4 -13 14 -24 26 -24 28
0 2 14 6 31 10 18 3 28 10 24 17 -5 6 -21 8 -41 4 -21 -3 -34 -2 -34 5 0 5 -9
10 -21 10 -11 0 -17 -5 -14 -10 3 -6 0 -13 -9 -16 -8 -3 -13 -11 -10 -18 3 -7
-7 -18 -21 -24 -14 -6 -25 -15 -25 -20 0 -20 14 -20 38 -2 33 27 50 25 58 -5
8 -33 -1 -43 -26 -28 -17 11 -19 8 -25 -27 -4 -22 -11 -41 -16 -41 -5 -1 -13
-3 -19 -4 -5 -1 -15 -3 -21 -4 -20 -2 -2 -26 21 -27 14 -1 24 5 27 17 4 15 11
17 32 13 39 -10 41 -12 41 -50 0 -21 4 -33 10 -29 6 3 10 2 10 -4 0 -5 -6 -11
-13 -14 -9 -3 -9 -9 -1 -23 6 -11 15 -19 20 -19 14 0 17 46 5 58 -15 15 -14
27 4 27 10 0 15 -11 15 -35 0 -21 5 -35 12 -35 9 0 9 -3 0 -12 -7 -7 -12 -22
-12 -34 0 -12 -7 -24 -15 -28 -23 -9 -18 -26 8 -26 32 0 38 9 25 34 -10 19
-10 20 5 7 16 -12 21 -9 18 12 0 4 4 7 9 7 6 0 10 -8 10 -17 0 -13 3 -14 11
-6 6 6 18 9 26 6 11 -4 12 -8 2 -13 -13 -9 -22 -60 -10 -60 16 0 41 38 41 63
0 31 13 41 37 28 10 -5 33 -16 51 -23 37 -15 42 -35 10 -47 -33 -12 -5 -23 38
-15 29 5 33 9 20 16 -9 5 -14 13 -11 19 11 17 23 9 45 -28 12 -20 15 -31 8
-25 -11 9 -20 8 -37 -4 -16 -12 -37 -15 -70 -12 -32 3 -51 0 -60 -9 -8 -9 -23
-12 -45 -7 -29 5 -36 2 -55 -24 -11 -17 -21 -34 -21 -39 0 -5 -7 -19 -16 -31
-12 -17 -19 -20 -29 -12 -8 7 -15 7 -19 1 -7 -11 7 -22 52 -37 29 -11 32 -10
32 9 0 11 3 17 7 13 4 -3 6 -25 4 -47 -1 -23 3 -47 9 -54 7 -8 10 -22 7 -32
-3 -15 -6 -14 -15 7 -9 20 -10 1 -6 -85 9 -153 10 -143 -21 -155 -19 -7 -25
-17 -26 -42 0 -18 -3 -27 -6 -21 -4 12 -73 -53 -73 -69 0 -15 17 -8 40 17 29
31 40 32 40 1 0 -15 7 -26 20 -29 13 -3 20 -14 20 -30 0 -14 7 -27 15 -31 24
-9 17 -26 -9 -26 -14 0 -28 -4 -31 -10 -3 -5 -26 -8 -50 -5 -25 2 -47 -1 -50
-6 -4 -5 17 -9 49 -9 31 0 58 -5 62 -12 5 -7 10 -3 16 13 l9 24 15 -27 15 -28
407 -1 c352 -1 400 -2 354 -13 -61 -15 -72 -23 -52 -36 12 -7 9 -10 -12 -10
-15 0 -33 6 -41 14 -24 24 -38 4 -32 -45 4 -32 3 -38 -4 -23 -5 12 -23 28 -40
35 -17 8 -31 20 -31 27 0 23 -38 -21 -42 -48 -2 -20 -10 -26 -35 -28 -20 -2
-41 -13 -55 -30 -13 -16 -36 -28 -53 -30 -16 -2 -35 -10 -41 -18 -6 -8 -17
-14 -24 -14 -9 0 -5 -8 9 -21 17 -16 22 -29 17 -50 -7 -37 2 -59 24 -59 26 0
42 -23 27 -40 -10 -10 -9 -12 5 -7 12 4 15 2 11 -9 -3 -7 -1 -14 5 -14 6 0 12
6 15 13 4 10 7 10 18 0 18 -18 44 -16 64 4 14 14 18 14 26 2 6 -10 3 -15 -9
-17 -41 -9 -30 -21 19 -21 84 -2 99 -4 99 -18 0 -16 -21 -17 -55 -1 -21 9 -31
9 -46 0 -21 -13 -59 -1 -59 18 0 6 -7 10 -15 10 -8 0 -15 -4 -15 -10 0 -5 7
-10 15 -10 8 0 15 -7 15 -15 0 -12 -15 -15 -72 -16 -40 -1 -104 -4 -143 -8
-88 -8 -175 20 -175 55 0 17 -5 20 -26 16 -14 -2 -29 0 -33 6 -7 11 -78 1 -73
-11 5 -17 1 -17 -14 -3 -35 36 -57 4 -34 -49 7 -17 9 -17 9 -2 1 10 9 17 20
17 25 0 38 -20 21 -30 -7 -4 -10 -15 -7 -24 5 -14 11 -14 47 -1 22 8 40 11 41
7 0 -4 2 -19 4 -34 2 -15 -1 -30 -6 -33 -5 -4 -9 -19 -9 -34 0 -20 -8 -34 -25
-45 -22 -15 -24 -19 -11 -31 8 -8 30 -15 48 -15 28 -1 30 -2 15 -11 -12 -7
-16 -17 -12 -30 4 -11 4 -43 0 -71 -5 -38 -12 -52 -26 -55 -26 -7 -24 -19 4
-28 19 -6 19 -8 5 -12 -25 -6 -22 -23 3 -23 21 0 22 -3 15 -77 -8 -91 -15 -98
-105 -107 -36 -4 -71 -12 -78 -18 -9 -7 -13 -7 -13 0 0 11 -56 -13 -65 -29 -4
-5 -16 -9 -29 -9 -12 0 -26 -4 -32 -10 -5 -5 -24 -6 -47 -1 -21 5 -39 5 -43 0
-3 -5 -18 -9 -33 -9 -20 0 -30 -6 -34 -20 -6 -23 14 -43 37 -34 9 3 23 1 31
-6 12 -10 16 -7 25 15 9 22 15 26 35 21 14 -4 25 -2 25 4 0 25 19 6 22 -22 l3
-32 25 37 c14 20 31 37 39 37 11 0 10 -4 -3 -19 -17 -18 -16 -19 18 -19 20 0
39 5 44 12 13 20 56 32 92 25 27 -5 29 -7 10 -8 -30 -1 -86 -56 -69 -67 8 -4
2 -13 -17 -23 l-29 -16 34 -3 c27 -3 39 2 60 25 36 41 73 41 88 3 6 -17 18
-30 27 -30 9 0 16 -7 16 -15 0 -10 -11 -15 -32 -16 -31 0 -31 -1 -10 -10 13
-5 20 -13 17 -19 -10 -16 24 -24 52 -11 19 9 29 9 39 0 24 -20 141 -22 219 -4
65 16 75 16 96 2 20 -12 75 -15 331 -15 283 1 309 2 327 19 29 27 35 87 15
140 -14 35 -19 87 -23 255 -5 157 -10 215 -20 227 -14 18 -9 47 9 47 5 0 10
-9 10 -20 0 -11 5 -20 11 -20 6 0 9 7 6 15 -7 16 44 57 64 53 7 -2 14 4 14 12
2 28 17 50 34 50 9 0 22 5 28 11 7 7 13 7 17 0 4 -5 -8 -18 -25 -27 -21 -10
-28 -19 -20 -23 6 -4 9 -15 5 -24 -3 -10 -1 -17 5 -17 6 0 11 9 11 20 0 11 5
20 10 20 18 0 11 -50 -8 -56 -57 -19 -70 -27 -75 -49 -2 -14 0 -22 4 -19 5 3
9 12 9 21 0 24 13 7 16 -20 2 -19 -3 -23 -24 -22 -21 0 -26 -4 -24 -20 2 -11
5 -38 7 -60 2 -22 4 -42 5 -45 0 -3 5 2 10 10 6 10 10 11 10 3 0 -8 15 -13 40
-13 29 0 40 -4 40 -15 0 -15 -36 -16 -72 0 -24 10 -47 -16 -52 -57 -2 -18 -9
-34 -15 -36 -19 -6 -12 -22 9 -22 11 0 20 5 20 10 0 6 9 10 19 10 11 0 23 5
27 11 5 8 -1 10 -20 7 -33 -7 -33 -2 2 16 l27 15 -25 10 -25 10 25 -1 c14 0
36 -4 50 -8 25 -8 25 -8 2 -9 -14 -1 -22 -6 -19 -13 2 -7 12 -12 21 -10 9 1
24 3 34 5 24 3 22 -27 -3 -32 -11 -2 -23 -8 -27 -14 -4 -6 -25 -11 -46 -10
-36 2 -40 0 -38 -23 1 -27 11 -32 20 -9 6 18 86 21 86 4 0 -7 10 -9 25 -5 26
7 30 -2 27 -47 -1 -10 8 -21 24 -27 33 -13 34 -13 34 5 0 8 -9 15 -20 15 -13
0 -20 7 -20 20 0 11 7 20 15 20 8 0 15 -5 15 -12 0 -20 15 3 16 25 2 34 15 57
33 57 9 0 12 -3 6 -8 -16 -11 -15 -73 2 -126 13 -41 13 -50 2 -57 -21 -13 -29
-11 -30 9 0 14 -2 14 -8 -3 -5 -11 -7 -23 -4 -28 2 -4 -7 -11 -20 -16 -21 -8
-25 -16 -24 -45 1 -40 17 -50 17 -11 0 14 5 25 10 25 6 0 13 0 17 0 4 0 6 -14
5 -31 -2 -16 2 -36 8 -44 17 -20 3 -56 -18 -48 -9 3 -5 -5 11 -18 15 -14 27
-30 27 -37 0 -7 7 -12 15 -12 16 0 20 15 7 24 -5 3 -8 29 -8 58 1 40 5 53 16
53 8 0 16 10 18 23 4 26 -5 28 -29 6 -16 -15 -39 -12 -39 4 0 9 49 32 67 32 7
0 13 7 13 16 0 9 7 14 18 12 9 -2 16 -11 14 -20 -1 -9 2 -19 8 -23 6 -4 10 6
10 24 0 24 4 31 19 31 11 0 23 5 26 10 11 18 26 0 15 -20 -7 -13 -6 -19 6 -24
9 -3 14 -13 10 -21 -7 -20 11 -29 28 -12 8 8 28 20 45 27 36 15 41 32 9 29
-13 -1 -36 -1 -52 -1 -22 2 -26 5 -18 15 20 24 -3 40 -46 33 -24 -3 -43 -2
-47 4 -4 6 9 10 32 10 43 0 63 14 63 43 0 16 3 17 14 8 8 -7 12 -21 8 -33 -3
-15 -2 -19 7 -14 7 5 13 -3 17 -22 5 -27 8 -28 29 -18 18 8 21 14 12 24 -9 11
-5 13 18 11 17 -2 36 0 43 5 7 4 16 6 19 3 2 -3 -5 -11 -17 -17 l-22 -12 23
-12 c27 -13 38 -46 16 -46 -8 0 -20 -7 -27 -15 -11 -13 -8 -15 18 -15 29 0 50
-18 50 -45 0 -5 5 -11 11 -13 15 -5 14 25 -1 31 -10 3 -10 9 0 26 12 20 11 23
-8 28 -14 4 -19 11 -15 21 3 8 -2 20 -11 27 -10 7 -13 14 -7 18 5 4 15 -4 22
-16 7 -12 24 -28 39 -35 21 -9 28 -20 30 -43 3 -33 -21 -69 -45 -69 -7 0 -13
-4 -13 -10 0 -5 7 -10 15 -10 8 0 15 -5 15 -10 0 -7 7 -7 21 1 28 14 41 -3 36
-48 -4 -41 26 -52 65 -23 15 11 31 20 37 20 15 0 -12 -47 -28 -48 -30 -4 -105
-1 -112 4 -4 2 -11 -1 -14 -6 -5 -8 -11 -6 -18 4 -9 11 -16 13 -27 6 -10 -6
-11 -10 -2 -10 6 0 12 -8 12 -17 0 -9 -3 -13 -7 -10 -9 9 -43 -22 -43 -40 0
-7 -4 -13 -10 -13 -5 0 -10 -7 -10 -15 0 -8 -4 -15 -10 -15 -5 0 -10 -11 -10
-24 0 -19 -7 -26 -29 -31 -15 -3 -38 -15 -49 -25 -20 -19 -22 -19 -31 -2 -10
16 -10 16 -11 0 0 -10 11 -25 25 -34 14 -9 25 -21 25 -26 0 -7 -4 -7 -12 -1
-18 14 -48 12 -48 -3 0 -7 5 -16 10 -19 17 -11 11 -25 -10 -25 -11 0 -23 7
-26 15 -4 8 -15 15 -25 15 -10 0 -19 5 -19 11 0 6 6 9 14 6 9 -4 16 4 20 24 7
38 0 56 -27 63 -21 5 -21 6 -2 20 11 8 23 12 27 10 14 -9 19 16 7 38 -9 16 -9
23 0 26 14 5 15 68 1 77 -5 3 -10 -3 -10 -14 0 -12 -5 -21 -10 -21 -6 0 -8
-10 -4 -24 4 -16 1 -25 -10 -29 -12 -5 -16 0 -16 18 0 13 -4 27 -10 30 -5 3
-10 17 -10 31 0 14 -4 22 -10 19 -6 -3 -10 -17 -10 -30 0 -29 -9 -55 -20 -55
-14 0 -21 32 -10 45 7 9 6 16 -4 24 -11 10 -17 6 -30 -20 -9 -17 -13 -35 -10
-40 3 -5 -7 -8 -23 -8 -17 1 -21 3 -10 6 21 5 23 23 2 23 -8 0 -15 5 -15 10 0
6 9 10 20 10 11 0 20 5 20 10 0 6 -11 10 -25 10 -16 0 -25 6 -25 15 0 24 -55
18 -87 -9 -15 -12 -33 -21 -39 -19 -13 4 -29 -14 -38 -43 -6 -19 -3 -21 21
-16 23 4 26 2 16 -9 -24 -24 -13 -32 37 -27 28 3 53 1 56 -3 9 -16 72 -10 82
7 5 10 14 14 21 9 9 -5 8 -12 -4 -25 -19 -21 -60 -31 -73 -18 -12 12 -83 -19
-80 -35 4 -17 -3 -20 -34 -12 -15 4 -41 2 -58 -3 -18 -7 -32 -7 -35 -1 -4 5
-15 9 -25 9 -10 0 -20 5 -22 12 -3 8 -9 8 -22 1 -16 -9 -14 -11 18 -17 20 -4
36 -11 36 -16 0 -6 15 -10 33 -11 l32 -1 -37 -9 c-27 -6 -44 -5 -65 6 -23 12
-30 12 -38 2 -5 -7 -18 -11 -28 -9 -10 2 -26 0 -35 -4 -13 -6 -9 -9 18 -14
l35 -7 -35 -2 c-19 -1 -39 -5 -45 -9 -14 -10 -35 -72 -24 -72 4 0 6 -7 3 -15
-4 -9 -19 -15 -38 -15 -23 0 -27 3 -16 10 23 15 5 22 -26 10 -20 -8 -30 -8
-32 -1 -2 6 -16 11 -32 11 -41 0 -46 26 -7 41 l32 13 -35 3 c-19 2 -60 -3 -90
-11 -54 -14 -47 -19 25 -17 29 1 29 0 8 -11 -26 -13 -30 -36 -9 -44 8 -3 24 0
36 6 20 11 21 10 15 -10 -6 -20 -4 -21 32 -19 21 1 52 2 68 0 26 -1 28 -3 12
-12 -10 -6 -29 -8 -42 -5 -13 3 -27 2 -30 -4 -9 -14 -53 -12 -62 3 -13 20 -64
50 -114 67 -37 13 -51 14 -63 5 -18 -14 -22 -30 -5 -19 7 4 10 1 7 -7 -4 -10
-19 -13 -58 -10 -36 2 -50 0 -46 -8 4 -6 13 -11 20 -11 7 0 21 -9 31 -20 15
-17 16 -20 3 -20 -9 0 -32 7 -51 15 -47 20 -94 19 -105 -1 -7 -13 -30 -16
-133 -16 -68 0 -139 0 -158 1 l-34 1 27 21 c37 29 33 43 -6 22 -18 -10 -55
-19 -83 -20 -27 0 -61 -3 -75 -5 -17 -2 -25 2 -25 12 0 23 -60 22 -81 -1 -9
-10 -26 -19 -38 -19 -35 0 -1 -23 56 -38 71 -19 84 -19 80 -3 -2 10 6 12 35 6
44 -8 53 -12 53 -26 0 -5 -12 -8 -26 -7 -15 2 -29 -3 -31 -9 -3 -9 6 -13 26
-13 50 0 40 -28 -11 -33 -27 -2 -13 -4 34 -5 53 -1 78 2 81 11 2 7 8 8 13 3 5
-5 4 -11 -4 -13 -19 -7 -14 -17 17 -31 23 -10 27 -17 23 -38 -2 -14 -11 -28
-18 -31 -19 -7 -18 -43 1 -70 13 -19 14 -36 6 -110 -21 -183 -20 -181 -72
-159 -22 9 -51 13 -77 9 -36 -5 -42 -9 -37 -24 4 -11 2 -19 -5 -19 -17 0 -8
55 10 56 29 2 70 16 70 25 0 10 -36 7 -46 -4 -4 -4 -13 -7 -19 -7 -18 0 -10
59 10 74 18 13 18 14 -1 25 -13 9 -15 14 -6 17 6 3 12 16 12 30 0 17 -4 22
-16 17 -8 -3 -13 -12 -10 -19 3 -7 1 -16 -5 -19 -5 -4 -16 -23 -25 -43 -8 -20
-20 -40 -27 -44 -7 -4 -12 -13 -12 -20 -1 -7 -7 -11 -15 -8 -8 2 -44 5 -80 5
l-65 0 0 -35 c0 -37 -19 -79 -30 -68 -4 4 -2 28 3 55 6 27 7 52 2 57 -5 5 -6
15 -3 22 3 8 0 14 -5 14 -6 0 -12 -10 -14 -22 -2 -14 -10 -23 -20 -23 -9 0
-20 -4 -24 -8 -4 -4 0 -7 9 -7 10 0 17 -4 17 -10 0 -5 -6 -7 -14 -4 -7 3 -30
-4 -50 -15 -20 -12 -36 -16 -36 -10 0 7 -11 9 -24 7 -16 -3 -27 0 -31 10 -3 9
-14 13 -30 9 -14 -2 -28 0 -32 6 -4 7 10 8 43 3 86 -13 114 -15 120 -5 3 5 -6
9 -20 9 -14 0 -26 5 -26 11 0 5 8 9 18 8 9 -1 25 1 35 6 17 7 17 8 0 21 -24
18 -34 17 -26 -3 5 -14 1 -15 -35 -10 -23 3 -42 2 -42 -3 0 -4 -13 -10 -30
-14 -16 -3 -44 -9 -60 -12 -27 -6 -44 -34 -20 -34 6 0 10 -7 10 -16 0 -12 6
-15 23 -10 27 6 93 -10 103 -26 5 -8 -15 -9 -70 -6 l-76 5 0 -73 c0 -64 2 -73
20 -79 11 -3 20 -11 20 -16 0 -5 5 -9 10 -9 6 0 10 6 10 13 0 16 32 47 48 47
7 0 12 -7 12 -15 0 -8 -6 -15 -14 -15 -16 0 -31 -18 -23 -26 3 -3 24 8 46 24
34 25 48 29 81 25 28 -4 43 -1 55 11 24 23 32 20 31 -13 l-1 -29 -57 6 c-49 4
-58 2 -58 -12 0 -11 9 -16 26 -16 16 0 24 -5 22 -12 -6 -17 -47 -23 -61 -9
-16 16 -42 13 -60 -7 -22 -24 -21 -32 1 -32 9 0 25 -7 36 -15 13 -10 25 -11
43 -4 14 5 30 6 36 2 7 -4 2 -9 -13 -13 -14 -3 -26 -14 -28 -23 -3 -14 2 -16
25 -11 26 5 28 4 27 -29 -1 -19 -4 -39 -8 -45 -5 -8 0 -12 13 -12 12 0 21 7
21 15 0 8 -5 15 -11 15 -8 0 -7 6 2 17 8 9 13 18 12 20 -7 8 -2 23 7 23 6 0
15 -12 21 -27 9 -22 7 -34 -5 -57 -9 -16 -14 -31 -11 -35 13 -12 38 16 52 58
14 43 14 45 -7 61 -19 14 -20 18 -7 28 23 19 28 64 10 84 -17 19 -19 17 32 33
11 3 14 14 10 39 -2 20 0 38 5 41 6 4 10 -3 10 -14 0 -10 6 -21 13 -24 9 -4 9
-7 0 -18 -16 -16 -17 -49 -2 -49 6 0 20 11 31 25 20 26 52 33 63 15 4 -6 11
-7 17 -4 6 4 -2 16 -18 30 -21 16 -26 26 -18 34 8 8 14 7 24 -5 7 -8 19 -15
26 -15 8 0 14 -8 14 -19 0 -16 6 -18 43 -14 48 6 92 -21 100 -60 4 -19 4 -18
6 5 1 35 14 42 56 28 23 -8 50 -8 87 -1 29 5 60 6 68 2 8 -5 48 -3 88 2 56 8
93 8 155 -3 109 -17 133 -19 416 -20 267 -1 261 -3 261 59 0 28 3 32 18 26 9
-4 35 -7 57 -6 22 1 47 -3 54 -8 9 -6 22 -6 33 0 15 8 18 6 18 -16 0 -20 5
-25 25 -25 14 0 33 8 43 18 14 15 21 16 42 5 32 -16 70 -6 70 17 0 14 -5 17
-21 13 -12 -4 -20 -2 -18 3 22 47 35 62 60 71 16 6 29 7 29 2 0 -10 52 -6 83
6 13 6 16 3 11 -9 -3 -9 -12 -16 -20 -16 -8 0 -14 -7 -14 -16 0 -14 -3 -14
-15 -4 -10 9 -15 9 -15 1 0 -6 -7 -11 -15 -11 -8 0 -15 7 -15 15 0 8 -7 15
-16 15 -14 0 -14 -3 -4 -15 9 -11 10 -19 1 -28 -8 -10 -8 -16 0 -24 14 -14 39
-6 39 11 0 8 16 12 45 11 35 -2 48 3 65 22 11 13 20 27 20 32 0 13 39 45 47
38 3 -4 12 1 19 11 13 16 13 16 14 0 0 -10 4 -18 9 -18 5 0 17 -3 26 -7 14 -5
16 -2 10 16 -5 18 -1 23 24 32 17 6 31 15 31 20 0 4 -7 6 -15 3 -8 -4 -23 -3
-32 1 -16 6 -15 8 7 18 14 5 32 10 40 11 9 1 17 15 21 36 3 19 11 47 17 63 6
15 9 27 6 27 -3 0 8 17 24 38 16 20 41 58 55 84 67 122 201 291 265 333 20 14
57 41 82 59 25 19 78 51 119 70 40 20 90 50 111 66 21 17 45 30 53 30 8 0 28
7 43 15 16 8 37 15 46 15 9 0 20 5 23 10 3 6 14 10 23 10 9 0 64 29 123 65
147 90 163 86 44 -10 -28 -22 -51 -43 -53 -47 -2 -5 -9 -8 -17 -8 -7 0 -19 -7
-26 -16 -8 -9 -31 -28 -53 -42 -42 -26 -136 -119 -136 -134 0 -5 3 -7 8 -5 4
2 23 11 43 20 20 9 49 29 65 45 16 15 61 53 99 84 105 84 178 164 170 186 -6
21 18 47 35 37 15 -9 12 -25 -6 -25 -9 0 -14 -6 -11 -12 2 -7 -7 -30 -19 -50
-13 -20 -25 -43 -26 -50 -2 -7 -11 -21 -20 -32 -18 -20 -17 -33 1 -21 6 3 40
51 76 105 41 62 77 106 96 115 32 17 34 15 42 -35 3 -15 5 -8 6 18 1 30 5 42
16 42 11 0 15 -11 15 -38 0 -21 7 -60 16 -86 9 -26 14 -56 11 -67 -3 -12 8
-39 30 -72 20 -29 49 -81 65 -116 17 -36 48 -86 70 -112 48 -57 225 -186 283
-206 23 -8 53 -25 65 -39 13 -13 34 -24 46 -24 13 0 25 -4 28 -9 3 -5 18 -11
33 -14 29 -5 87 -24 114 -38 9 -4 35 -6 57 -4 26 2 42 -1 45 -9 4 -9 26 -12
76 -10 67 3 70 2 61 -16 -15 -28 -12 -49 4 -27 7 9 18 17 25 17 6 0 11 5 11
10 0 6 7 10 15 10 8 0 15 -4 15 -10 0 -5 0 -13 0 -17 0 -5 -5 -8 -12 -8 -6 0
-13 -6 -15 -12 -3 -7 -2 -13 2 -13 12 0 65 31 65 38 0 4 19 8 43 10 38 2 45
-1 57 -23 17 -32 9 -40 -31 -26 -32 11 -49 8 -49 -10 0 -5 18 -9 41 -9 33 0
40 -3 37 -17 -2 -11 -15 -20 -33 -22 -30 -4 -30 -4 -5 -11 20 -5 25 -12 23
-33 -3 -50 16 -17 22 38 5 35 12 55 20 55 27 0 45 -13 45 -30 0 -27 17 -34 25
-10 9 29 23 25 17 -5 -2 -14 -8 -25 -13 -25 -5 0 -9 -10 -9 -22 0 -23 0 -23
20 2 11 14 20 30 20 36 0 16 34 44 53 44 22 0 30 -33 18 -77 -6 -21 -11 -52
-11 -69 0 -19 -6 -34 -15 -37 -21 -9 -27 7 -19 50 l7 38 -22 -27 c-12 -14 -24
-41 -27 -60 -4 -18 -13 -43 -20 -55 -10 -17 -11 -23 -1 -26 8 -3 6 -9 -7 -19
-15 -12 -18 -22 -13 -48 5 -22 2 -41 -10 -60 -14 -24 -21 -27 -49 -23 -17 3
-40 1 -50 -5 -17 -9 -16 -11 9 -17 15 -4 27 -9 27 -11 0 -10 -36 -44 -47 -44
-8 0 -18 -11 -23 -25 -6 -15 -17 -25 -30 -25 -15 0 -19 -6 -17 -22 2 -21 -2
-23 -36 -20 -21 2 -45 -2 -53 -8 -9 -8 -29 -10 -54 -6 -36 6 -42 4 -50 -16 -5
-13 -9 -17 -9 -10 -1 9 -14 11 -47 8 -45 -5 -46 -4 -28 15 14 16 15 19 2 19
-8 0 -27 -9 -42 -21 -14 -11 -30 -17 -36 -14 -5 3 -10 -1 -10 -9 0 -30 -25
-41 -88 -38 -39 3 -60 8 -56 14 8 12 -16 29 -29 21 -4 -2 -3 -11 3 -18 23 -28
4 -35 -87 -35 -12 0 -25 -5 -28 -10 -3 -6 -21 -10 -40 -10 -19 0 -63 -7 -99
-15 -70 -16 -159 -28 -216 -28 -45 0 -99 21 -82 32 7 4 10 15 6 25 -4 11 -10
13 -18 7 -6 -5 -22 -11 -36 -13 -20 -2 -24 -8 -22 -27 3 -22 1 -23 -27 -18
-26 5 -32 3 -43 -21 -11 -23 -20 -27 -59 -30 -35 -2 -49 -8 -58 -25 -7 -12
-28 -33 -47 -47 -19 -14 -43 -39 -54 -57 -18 -28 -39 -48 -132 -125 -14 -13
-29 -34 -32 -48 -7 -32 -43 -90 -56 -90 -6 0 -10 28 -10 65 0 49 4 67 15 71 9
4 15 19 15 41 0 41 -16 35 -28 -10 -12 -48 -27 -29 -29 38 -2 79 -15 121 -36
117 -12 -2 -27 20 -53 74 -31 67 -36 84 -32 133 6 83 50 163 132 244 38 37 65
67 60 67 -5 0 -35 -19 -66 -43 -61 -46 -97 -92 -134 -172 l-24 -50 5 135 c6
191 10 213 56 302 38 76 39 79 17 72 -12 -4 -29 -14 -36 -23 -30 -37 -66 -129
-72 -186 -6 -60 -6 -60 -14 -22 -5 21 -6 61 -3 90 4 29 9 77 13 107 l6 55 -23
-35 c-15 -23 -24 -55 -27 -95 -3 -51 13 -215 35 -345 3 -22 2 -31 -4 -25 -5 6
-15 46 -22 90 -15 93 -35 137 -28 62 3 -26 1 -50 -4 -52 -6 -4 -33 70 -55 153
-5 19 -24 14 -24 -6 0 -10 6 -42 14 -72 7 -30 16 -71 20 -90 l6 -35 -26 43
c-14 23 -29 42 -33 42 -5 0 -12 11 -15 25 -4 14 -11 25 -17 25 -7 0 -9 -10 -4
-27 4 -16 8 -54 10 -86 4 -64 5 -64 -52 -13 -34 29 -39 11 -8 -29 32 -43 28
-52 -14 -31 -32 17 -51 7 -26 -14 8 -7 15 -19 15 -26 0 -8 5 -14 12 -14 6 0 8
-3 5 -6 -4 -4 -13 -1 -21 5 -8 7 -27 11 -41 9 l-27 -3 43 -42 c45 -45 47 -67
5 -39 -34 22 -54 21 -33 -2 10 -10 17 -23 17 -29 0 -6 6 -14 13 -17 6 -3 1 -3
-13 0 -14 3 -30 12 -36 20 -6 7 -14 11 -18 7 -3 -3 1 -14 10 -24 9 -11 14 -25
10 -35 -6 -14 -4 -15 10 -4 13 12 17 11 25 -1 6 -10 3 -15 -11 -17 -27 -4 -25
-18 6 -49 17 -17 22 -29 15 -36 -13 -13 41 -90 77 -107 22 -11 24 -14 9 -17
-17 -4 -135 29 -169 48 -23 12 -38 12 -38 -1 0 -5 7 -10 15 -10 8 0 24 -9 35
-20 11 -11 24 -20 28 -20 5 0 19 -14 31 -31 l24 -32 -23 -17 -23 -18 21 -11
c26 -14 29 -31 5 -31 -19 0 -233 82 -276 106 -37 21 -44 12 -18 -22 33 -42 92
-81 167 -112 69 -28 69 -28 67 -65 -1 -20 -10 -48 -19 -62 -18 -28 -30 -71
-44 -167 -6 -44 -17 -75 -30 -88 -11 -11 -20 -30 -20 -43 0 -13 -11 -34 -25
-47 -14 -13 -30 -41 -35 -61 -6 -21 -27 -55 -46 -76 -65 -68 -87 -125 -88
-228 0 -74 3 -99 22 -137 26 -57 26 -58 7 -58 -25 0 -17 -13 25 -42 25 -18 38
-33 34 -42 -4 -10 6 -20 26 -31 24 -12 29 -20 21 -28 -6 -6 -11 -27 -11 -47 0
-20 -5 -41 -11 -47 -8 -8 -8 -17 0 -31 18 -34 14 -45 -14 -38 -14 4 -25 2 -25
-3 0 -5 -11 -12 -25 -15 -18 -5 -25 -13 -25 -31 0 -14 -4 -25 -10 -25 -5 0
-10 -8 -10 -18 0 -10 -3 -22 -7 -26 -10 -9 -4 -99 8 -110 13 -14 22 0 21 34 0
16 4 32 9 35 8 6 11 -12 13 -88 1 -19 9 -33 26 -42 14 -8 19 -14 12 -15 -7 0
-22 5 -33 10 -12 7 -19 7 -19 1 0 -5 -8 -12 -17 -14 -13 -3 -11 -5 6 -6 19 -1
22 -5 18 -23 -4 -12 -2 -27 3 -33 11 -13 -2 -36 -21 -38 -21 -4 -39 -17 -39
-28 0 -6 8 -8 19 -4 22 7 38 -22 21 -39 -7 -7 -14 -4 -23 8 -13 18 -14 18 -21
0 -5 -10 -10 -34 -13 -52 -3 -18 -11 -45 -18 -60 -9 -16 -11 -30 -5 -37 5 -6
5 -17 0 -25 -13 -20 -13 -60 0 -60 6 0 10 7 10 15 0 8 4 15 8 15 15 0 33 -51
26 -72 -5 -17 -3 -18 14 -9 11 6 22 18 26 26 3 9 10 14 16 10 5 -3 6 -15 1
-28 -5 -12 -7 -37 -5 -55 2 -18 0 -52 -6 -75 -10 -49 3 -74 24 -44 19 25 36
21 36 -8 0 -15 -9 -29 -22 -36 -13 -7 -18 -14 -11 -16 6 -2 26 3 43 12 29 15
32 15 63 -6 59 -41 73 -69 33 -69 -37 0 -40 -16 -6 -30 25 -10 28 -15 19 -37
-13 -35 -12 -36 17 -29 25 7 26 5 21 -23 -5 -23 -2 -31 11 -34 16 -4 16 -5 0
-6 -14 -1 -17 -10 -16 -46 2 -34 -2 -48 -17 -60 -19 -14 -19 -16 -2 -29 10 -8
14 -17 8 -20 -5 -3 -19 6 -30 21 -19 26 -22 26 -32 10 -14 -24 -26 -21 -33 8
-6 23 -8 24 -22 10 -8 -8 -20 -15 -25 -15 -5 0 -9 -13 -9 -29 0 -17 -5 -33
-11 -36 -6 -4 -8 -14 -5 -22 5 -11 2 -13 -10 -9 -8 3 -22 6 -29 6 -13 0 -15
24 -2 36 9 9 9 49 0 57 -3 4 -13 1 -21 -6 -13 -10 -14 -8 -10 15 4 20 1 29
-13 33 -24 8 -30 29 -16 64 11 29 9 33 -23 60 -31 26 -34 32 -22 50 23 40 5
70 -25 40 -12 -12 -39 73 -29 90 4 5 1 13 -7 18 -7 4 -19 28 -27 53 -8 25 -17
47 -21 50 -13 9 -46 240 -54 380 -2 19 -6 143 -9 275 -8 269 -10 287 -31 279
-21 -8 -20 49 0 70 23 23 20 66 -6 66 -16 0 -20 5 -17 27 3 29 28 45 28 18 0
-9 5 -13 10 -10 6 4 8 10 5 15 -3 5 -1 11 5 15 5 3 10 13 10 22 0 14 -3 13
-21 -3 -20 -18 -22 -18 -34 -1 -13 19 -35 23 -35 7 0 -6 -8 -5 -19 2 -24 15
-17 30 12 26 16 -2 26 6 39 30 9 18 23 41 32 51 17 18 12 31 -11 31 -7 0 -12
-5 -10 -12 1 -6 -7 -14 -18 -16 -11 -2 -28 -11 -37 -19 -10 -9 -24 -13 -33
-10 -24 10 -17 37 12 48 31 12 43 26 43 52 0 10 -8 17 -20 17 -11 0 -21 6 -21
13 -1 6 -5 -5 -8 -27 -6 -36 -8 -39 -43 -42 -44 -4 -54 22 -13 32 14 3 22 10
20 15 -3 5 2 20 11 34 12 19 25 25 53 26 41 0 65 9 67 24 1 6 5 20 9 33 4 13
2 22 -4 22 -6 0 -11 -7 -11 -15 0 -8 -8 -19 -19 -24 -14 -8 -24 -6 -40 8 -28
25 -26 33 7 25 22 -5 25 -4 15 6 -7 7 -24 14 -37 16 -22 2 -26 -2 -32 -32 -7
-38 -39 -84 -57 -84 -7 0 -6 4 3 10 11 7 7 10 -17 10 -23 0 -37 7 -52 29 -12
16 -21 33 -21 38 0 20 -53 63 -78 64 l-27 1 25 7 c19 5 24 13 22 32 -7 48 -11
124 -6 106 9 -31 31 -20 26 14 -3 20 -9 28 -18 25 -7 -3 -24 4 -38 15 -20 16
-26 29 -26 60 0 40 14 51 38 27 10 -10 15 -10 22 2 16 24 12 30 -21 30 -26 0
-29 3 -24 20 4 11 2 20 -4 20 -6 0 -11 -10 -12 -22 0 -22 0 -22 -9 -2 -7 18
-10 65 -13 177 -1 46 9 133 17 146 4 5 7 30 8 53 0 41 4 46 49 76 27 18 57 32
66 32 10 0 27 7 37 15 36 27 46 19 46 -39 0 -44 -4 -55 -17 -59 -14 -4 -12 -5
5 -6 19 -1 22 4 24 42 0 23 1 50 0 59 -1 10 6 17 16 17 9 1 34 1 55 1 38 1 41
4 37 53 -1 24 2 27 27 27 25 0 29 4 31 30 2 30 -12 42 -21 18 -2 -7 -8 -9 -13
-5 -5 4 -3 12 4 16 14 8 42 57 42 72 0 5 -7 6 -15 3 -23 -9 -14 81 13 133 28
53 28 67 2 51 -11 -7 -20 -18 -20 -25 0 -7 -4 -13 -10 -13 -5 0 -10 12 -10 26
0 21 -3 24 -14 15 -9 -8 -12 -22 -7 -44 9 -41 2 -137 -10 -137 -5 0 -30 13
-56 29 -27 16 -59 32 -73 36 -14 4 -31 12 -38 18 -8 6 -57 13 -110 15 -86 3
-95 2 -83 -12 8 -9 22 -16 31 -16 25 0 50 -10 50 -21 0 -12 -107 -11 -115 1
-10 16 -26 11 -24 -7 3 -33 -1 -43 -16 -43 -8 0 -26 -5 -40 -12 -19 -8 -24
-16 -19 -31 5 -17 2 -18 -25 -12 -39 8 -41 -9 -4 -27 15 -7 29 -22 31 -33 2
-16 1 -17 -7 -5 -8 12 -14 12 -34 1 -14 -7 -29 -11 -34 -8 -4 2 -17 1 -28 -4
-17 -6 -16 -8 10 -10 17 -1 45 -1 63 0 17 2 32 -2 32 -8 0 -6 -16 -11 -35 -11
-50 0 -43 -20 8 -21 37 -2 34 -3 -18 -9 -77 -8 -100 -3 -83 18 12 14 7 15 -38
9 -27 -3 -57 -1 -65 4 -10 6 -1 9 28 9 45 0 67 16 31 23 -20 3 -19 5 15 20 46
21 48 42 5 53 -18 4 -44 11 -58 15 -25 7 -25 7 4 8 24 1 27 3 16 16 -7 8 -23
15 -36 15 -13 0 -24 5 -24 10 0 14 47 13 52 -2 3 -7 14 -9 34 -3 l29 7 -39 12
c-43 12 -61 36 -27 36 11 0 23 -4 26 -10 3 -6 12 -10 18 -10 8 0 7 3 -2 9 -7
5 -11 13 -7 19 3 5 -8 12 -27 15 -17 3 -43 8 -57 11 -24 6 -24 6 -2 -3 25 -11
31 -37 6 -27 -9 4 -13 2 -8 -5 4 -6 1 -15 -6 -19 -16 -10 -62 18 -54 32 4 6 0
14 -7 19 -11 7 -9 9 6 10 12 0 5 6 -20 15 -48 18 -72 38 -35 30 14 -2 45 -7
70 -11 24 -3 49 -10 55 -14 17 -14 74 -21 80 -11 10 17 25 11 25 -10 0 -11 7
-20 15 -20 9 0 15 -9 15 -25 0 -30 32 -41 73 -26 20 8 27 7 27 -2 0 -8 3 -8 9
2 5 8 17 11 28 7 14 -4 25 2 41 24 22 29 19 35 -16 31 -21 -3 -13 15 17 39 25
18 28 25 19 40 -13 20 -39 21 -51 3 -4 -7 -15 -13 -23 -13 -12 0 -12 -4 2 -25
9 -14 12 -25 6 -25 -18 0 -52 42 -52 63 0 25 86 108 104 101 8 -3 17 -1 21 5
3 6 26 11 51 11 28 0 43 4 39 10 -10 16 -111 12 -125 -5 -7 -8 -18 -14 -24
-13 -21 4 -53 -21 -66 -52 -9 -21 -19 -30 -36 -30 -13 0 -24 -4 -24 -9 0 -5
-18 -12 -40 -16 -22 -4 -40 -11 -40 -16 0 -11 -64 1 -68 13 -2 5 -10 4 -17 -2
-9 -7 -16 -6 -25 5 -7 8 -23 15 -37 15 -17 0 -23 5 -21 16 2 10 -3 19 -9 21
-7 3 -13 -2 -13 -11 0 -25 -39 -47 -61 -33 -26 16 -12 29 24 21 28 -6 30 -5
18 10 -9 10 -10 16 -2 16 6 0 11 5 11 10 0 6 -6 10 -14 10 -8 0 -16 7 -20 15
-4 11 -21 14 -70 12 -35 -1 -64 2 -63 7 1 5 -3 10 -9 13 -6 2 -14 -7 -16 -21
-5 -23 -2 -25 30 -22 42 4 75 -19 51 -35 -30 -19 -82 -28 -101 -18 -10 6 -27
8 -37 4 -11 -3 -25 3 -36 15 -10 11 -30 20 -45 20 -14 0 -30 4 -36 9 -9 10
-38 15 -64 11 -8 -1 -2 -8 15 -15 17 -8 23 -14 13 -15 -9 0 -18 -5 -20 -11 -2
-5 -10 -11 -18 -13 -23 -5 -107 -46 -93 -46 6 0 9 -9 6 -20 -5 -17 -11 -19
-44 -14 -26 4 -39 3 -39 -5 0 -6 9 -11 19 -11 21 0 35 -13 25 -23 -4 -3 -14
-1 -24 5 -14 9 -22 9 -33 -1 -13 -10 -17 -9 -25 4 -5 10 -17 15 -27 14 -32 -7
-27 -24 10 -38 27 -9 35 -18 35 -37 0 -14 -6 -24 -14 -24 -21 0 -30 -20 -17
-33 18 -18 13 -27 -19 -27 -16 0 -30 -4 -30 -10 0 -5 9 -10 19 -10 11 0 23 -4
26 -10 4 -6 -11 -10 -37 -10 -24 0 -61 -5 -83 -11 -62 -16 -131 -16 -127 0 2
9 -3 11 -13 7 -9 -3 -19 -6 -21 -6 -2 0 -4 -9 -4 -20 0 -11 7 -20 15 -20 9 0
33 -12 55 -26 21 -14 43 -23 48 -20 13 8 35 -20 27 -34 -3 -5 1 -10 9 -10 9 0
16 4 16 8 0 12 46 32 74 32 26 0 61 -34 51 -49 -4 -7 8 -11 32 -11 27 0 45 -7
61 -24 27 -29 28 -36 2 -36 -11 0 -20 -7 -20 -15 0 -10 -10 -15 -33 -15 -20 0
-41 -8 -51 -19 -11 -12 -25 -16 -41 -13 -15 2 -25 0 -25 -7 0 -6 7 -11 15 -11
8 0 15 -4 15 -10 0 -5 3 -9 7 -9 31 5 34 -4 8 -21 -16 -11 -24 -20 -18 -20 9
0 11 -10 6 -31 -4 -23 -2 -30 8 -29 28 4 49 0 49 -10 0 -5 -8 -10 -17 -10 -15
0 -16 -2 -3 -10 19 -13 60 -13 60 0 0 5 7 7 15 4 11 -5 15 1 15 22 -1 24 -2
26 -10 12 -6 -10 -18 -14 -30 -11 -11 3 -18 9 -15 13 3 5 -4 6 -15 3 -11 -3
-20 0 -20 6 0 6 5 11 10 11 21 0 9 20 -15 26 -14 3 -22 10 -19 15 3 5 16 6 30
3 20 -5 24 -2 24 14 0 19 2 20 27 6 16 -7 36 -14 47 -14 15 0 17 -5 11 -27 -4
-16 -9 -47 -12 -70 -5 -41 -6 -41 -61 -56 -41 -11 -49 -15 -29 -16 17 -1 26
-5 22 -12 -4 -6 -13 -8 -21 -5 -8 3 -14 1 -14 -4 0 -6 -7 -10 -15 -10 -8 0
-15 9 -15 20 0 24 -43 38 -64 21 -7 -6 -20 -9 -28 -6 -8 3 -21 -1 -28 -10 -10
-13 -9 -15 8 -15 15 0 20 -5 16 -15 -5 -12 2 -15 32 -15 22 0 57 -3 78 -7 28
-4 37 -3 32 6 -4 6 0 14 10 18 10 3 26 15 36 25 31 31 40 20 11 -13 -30 -34
-35 -50 -15 -57 6 -2 12 3 12 12 0 10 9 16 25 16 29 0 35 -26 7 -33 -16 -4
-16 -5 1 -6 23 -1 22 -21 -2 -21 -11 0 -26 -3 -35 -6 -11 -4 -16 -1 -16 11 0
12 -5 15 -16 11 -9 -3 -18 -6 -20 -6 -2 0 -4 -9 -4 -20 0 -13 -7 -20 -19 -20
-11 0 -22 -4 -25 -9 -4 -5 -13 -8 -21 -7 -29 4 -24 13 15 25 22 6 40 18 40 26
0 21 -76 38 -140 32 -47 -5 -52 -4 -37 7 28 21 21 39 -13 31 -19 -4 -30 -3
-30 4 0 6 6 11 13 11 6 0 -1 11 -17 25 -16 14 -41 25 -55 25 -40 0 -71 11 -71
25 0 18 37 26 67 14 27 -10 63 -4 63 12 0 13 -18 11 -23 -3 -3 -9 -13 -4 -31
14 -18 18 -23 28 -14 31 7 2 9 8 5 13 -4 4 -17 3 -27 -4 -16 -10 -20 -10 -20
1 0 7 -13 14 -30 15 -23 2 -28 -1 -23 -13 4 -13 0 -15 -21 -9 -16 4 -26 2 -26
-5 0 -6 10 -13 23 -16 13 -4 28 -15 35 -26 11 -17 9 -21 -13 -29 -15 -6 -33
-10 -41 -10 -8 0 -14 -4 -14 -10 0 -5 -5 -10 -11 -10 -8 0 -8 4 0 14 9 10 9
16 1 21 -6 4 -17 -1 -25 -11 -7 -11 -9 -20 -4 -22 5 -2 9 -11 9 -19 0 -13 -9
-15 -55 -9 -35 4 -55 2 -55 -4 0 -5 8 -10 18 -10 16 -1 16 -1 0 -14 -31 -23
-22 -46 16 -46 19 0 38 -5 41 -10 8 -12 51 -13 73 -1 9 5 49 10 87 12 79 3 97
9 69 21 -15 7 -14 7 6 3 14 -2 35 -5 48 -5 12 0 22 -4 22 -10 0 -5 -11 -10
-24 -10 -14 0 -28 -5 -31 -10 -4 -6 -15 -8 -26 -5 -13 4 -19 2 -19 -9 0 -9 -7
-16 -15 -16 -8 0 -15 7 -15 16 0 11 -5 14 -16 10 -9 -3 -23 -6 -32 -7 -10 0
-5 -5 11 -11 18 -6 26 -15 23 -24 -3 -8 -2 -13 2 -13 18 3 32 -2 32 -11 0 -5
-17 -10 -38 -10 -29 0 -39 -5 -47 -22 -6 -14 -20 -24 -35 -25 -14 0 -30 -1
-37 -2 -7 -1 -10 -8 -7 -16 7 -17 -31 -22 -41 -6 -8 13 55 57 83 59 21 1 61
36 62 55 0 10 -38 9 -61 -3 -15 -8 -19 -7 -19 4 0 13 -17 19 -97 33 l-33 5 0
-69 c0 -68 0 -69 35 -87 38 -21 41 -42 10 -76 -16 -18 -17 -24 -6 -42 10 -17
10 -23 -6 -41 -10 -12 -22 -25 -26 -28 -4 -3 -1 -12 8 -19 14 -11 20 -9 46 19
28 31 40 59 19 46 -6 -3 -13 1 -17 10 -3 10 0 21 8 26 21 13 29 11 23 -6 -4
-9 0 -15 9 -15 9 0 17 10 19 23 3 25 18 27 33 3 7 -12 6 -19 -5 -26 -13 -8
-12 -10 3 -10 9 0 17 -7 17 -15 0 -8 8 -15 18 -14 11 0 12 2 4 6 -10 4 -10 8
-1 19 15 19 53 19 46 0 -3 -8 1 -17 9 -20 21 -8 17 -24 -8 -32 -32 -10 -49
-35 -43 -62 3 -12 -1 -35 -10 -52 -8 -16 -15 -40 -15 -55 0 -14 -4 -25 -9 -25
-5 0 -11 -10 -13 -22 -3 -20 -8 -21 -75 -19 -68 2 -73 1 -73 -19 0 -17 4 -19
25 -14 25 6 25 5 14 -20 -7 -14 -18 -26 -26 -26 -8 0 -13 -11 -12 -27 1 -19 3
-22 6 -10 3 11 11 16 19 13 7 -3 16 -1 19 4 8 13 25 13 25 1 0 -5 -16 -19 -35
-31 -39 -24 -45 -40 -15 -40 24 0 26 -16 3 -29 -13 -7 -17 -23 -18 -63 0 -52
1 -53 30 -56 40 -5 56 -21 27 -28 -12 -4 -22 -10 -22 -15 0 -5 -10 -9 -22 -9
-20 0 -21 -1 -7 -16 15 -14 20 -12 58 23 37 33 50 38 92 39 35 1 49 -3 49 -12
0 -17 29 -18 31 -1 1 6 2 21 3 32 1 16 9 21 44 23 28 2 42 8 42 18 0 22 15 17
29 -10 7 -13 31 -33 52 -45 47 -27 66 -56 42 -65 -9 -4 -13 -9 -10 -12 3 -3
12 -2 19 2 18 12 68 14 68 3 0 -4 -9 -13 -20 -19 -11 -6 -20 -17 -20 -25 0 -7
-13 -16 -29 -20 -16 -3 -32 -13 -35 -21 -7 -19 -45 -18 -52 1 -4 9 -19 15 -35
15 -19 0 -29 5 -29 15 0 11 -11 15 -42 13 -38 -1 -39 -2 -10 -5 19 -3 32 -9
29 -16 -6 -19 -66 -29 -100 -18 -39 14 -47 14 -47 -3 0 -17 -27 -29 -35 -16
-12 19 -25 10 -25 -16 0 -14 4 -23 10 -19 6 3 10 -1 10 -9 0 -9 7 -16 16 -16
8 0 12 -4 9 -10 -3 -5 2 -10 11 -10 16 0 16 1 1 18 -21 23 -22 33 -2 25 9 -3
23 -19 31 -35 15 -28 16 -29 39 -14 30 20 35 20 35 2 0 -7 7 -19 15 -26 8 -7
15 -21 15 -31 0 -10 8 -22 17 -27 21 -12 -43 -21 -172 -24 -55 -2 -95 -7 -103
-15 -10 -9 -12 -78 -11 -298 1 -280 1 -285 21 -285 16 0 18 3 9 14 -8 10 -8
22 0 47 15 43 12 41 42 30 20 -8 27 -7 31 5 9 23 8 24 -13 24 -28 0 -35 17
-11 25 23 7 26 21 8 28 -7 3 8 6 35 6 35 1 47 -3 47 -14 0 -12 -4 -13 -25 -3
-29 13 -38 8 -29 -16 7 -18 24 -22 24 -5 0 6 9 8 20 4 14 -5 20 -2 20 9 0 19
21 21 38 4 21 -21 14 -39 -12 -32 -20 5 -24 2 -22 -13 2 -11 10 -17 22 -16 46
5 120 26 134 38 8 8 27 17 43 20 15 4 32 16 38 27 9 18 17 19 52 13 55 -10
122 -9 232 3 113 13 365 14 470 1 44 -5 134 -12 200 -15 117 -6 164 -18 117
-30 -12 -4 -22 -10 -22 -15 0 -5 -11 -9 -25 -9 -14 0 -34 -9 -44 -19 -23 -23
-98 -38 -114 -22 -7 7 -1 15 24 25 22 10 27 15 15 16 -30 0 -96 -22 -90 -31 3
-5 -4 -9 -15 -9 -14 0 -19 5 -15 15 5 11 -1 15 -25 15 -32 0 -44 -19 -13 -22
9 -1 -37 -5 -103 -9 -172 -9 -257 -19 -282 -31 -27 -13 -44 -2 -23 13 12 9 12
10 -3 5 -10 -3 -25 -6 -33 -6 -8 0 -14 -6 -14 -13 0 -13 -67 -43 -76 -34 -3 3
4 14 16 25 13 12 19 26 15 32 -4 7 -1 16 6 21 10 6 6 9 -13 9 -19 0 -26 -4
-22 -13 3 -8 -6 -19 -22 -26 -22 -10 -31 -9 -52 5 -19 12 -22 18 -11 25 7 4
18 4 24 -1 6 -5 17 -5 25 0 10 6 7 11 -16 16 -16 5 -37 7 -47 5 -9 -1 -17 2
-17 7 0 15 -71 25 -83 13 -6 -6 -20 -11 -32 -11 -17 0 -18 -2 -5 -11 12 -8 9
-10 -13 -6 -24 4 -30 0 -39 -22 -6 -14 -14 -34 -19 -43 -12 -23 5 -32 67 -34
87 -3 132 -14 137 -34 3 -13 -2 -20 -20 -25 -34 -8 -42 2 -12 15 24 10 24 10
-3 7 -15 -2 -29 0 -31 6 -4 13 -95 19 -102 7 -4 -6 -10 -8 -14 -6 -4 3 -8 -7
-9 -21 -3 -32 -10 -43 -29 -43 -11 0 -14 6 -9 25 7 29 -1 31 -31 10 -24 -17
-48 -12 -57 12 -8 19 1 33 21 33 10 0 13 6 9 16 -4 9 -2 22 4 29 8 9 6 15 -7
19 -12 5 -22 1 -32 -13 -7 -12 -20 -21 -29 -21 -8 0 -20 -7 -27 -16 -6 -9 -30
-18 -54 -20 -49 -4 -92 -23 -53 -24 12 0 22 -5 22 -11 0 -7 -14 -10 -35 -7
-34 4 -35 3 -34 -32 0 -29 2 -31 9 -14 5 13 16 20 31 19 29 -2 38 -25 10 -25
-13 0 -21 -6 -21 -16 0 -10 6 -14 15 -10 8 3 15 1 15 -5 0 -5 -13 -12 -30 -16
-31 -6 -42 -36 -17 -46 10 -4 10 -6 0 -6 -10 -1 -13 -28 -13 -103 0 -102 1
-103 19 -79 11 14 23 21 30 16 9 -5 8 -10 -5 -19 -18 -13 -12 -36 9 -36 13 0
87 87 87 101 0 5 7 9 15 9 7 0 18 6 22 14 4 8 37 24 73 36 36 12 70 26 75 30
6 5 10 27 10 49 -1 44 6 48 45 28 27 -14 60 -12 60 4 0 5 8 9 17 9 14 0 14 -3
-5 -20 -12 -11 -29 -20 -38 -20 -10 0 -14 -5 -10 -15 3 -9 0 -15 -8 -15 -17 0
-46 -43 -46 -69 0 -47 91 -96 106 -57 5 13 10 10 24 -16 14 -26 24 -33 50 -35
34 -1 69 -23 38 -23 -9 0 -28 -14 -42 -31 -16 -19 -32 -29 -41 -25 -8 3 -15 0
-15 -7 0 -9 -3 -8 -9 1 -4 7 -21 12 -37 10 -23 -2 -29 1 -28 14 1 13 -5 18
-25 17 -17 -1 -20 -3 -8 -6 9 -2 17 -9 17 -14 0 -5 -50 -6 -122 -3 -146 7
-182 7 -226 -1 -32 -6 -33 -8 -30 -48 l3 -42 48 -3 c48 -3 62 -16 28 -27 -15
-4 -19 -13 -16 -35 4 -30 -1 -34 -36 -31 -9 1 -19 -5 -22 -14 -5 -12 1 -15 28
-15 47 0 45 -20 -2 -21 -30 0 -34 -2 -18 -9 17 -7 18 -9 4 -14 -13 -6 -17 -25
-18 -103 -1 -64 3 -101 11 -111 10 -12 10 -16 1 -19 -9 -3 -13 -26 -13 -68 l0
-63 54 3 c42 3 59 9 79 29 28 28 42 32 52 16 3 -5 17 -10 31 -10 15 0 24 -6
24 -15 0 -18 -41 -20 -57 -4 -8 8 -17 8 -31 -3 -17 -11 -18 -16 -7 -31 7 -10
19 -15 29 -11 12 4 15 2 11 -9 -5 -11 6 -16 46 -21 37 -5 52 -12 56 -25 4 -16
10 -17 55 -9 55 10 67 6 48 -17 -11 -13 -9 -15 14 -15 19 0 26 -5 26 -20 0
-20 1 -20 26 -3 l27 17 -22 10 c-17 7 -21 15 -16 33 8 32 -2 45 -23 32 -19
-12 -72 3 -72 21 0 12 -49 3 -65 -11 -14 -13 -25 -11 -25 6 0 9 9 15 23 15 13
0 28 5 35 12 8 8 15 8 25 -1 11 -8 27 -9 56 -2 23 5 43 5 46 1 9 -14 60 -18
110 -9 28 5 79 11 115 13 324 19 316 19 915 -13 109 -6 174 -6 181 0 7 5 24 7
38 3 21 -5 26 -12 24 -32 -2 -18 2 -27 11 -27 8 0 16 -6 19 -12 4 -15 -11 -16
-58 -4 -19 5 -98 12 -175 15 -77 4 -176 9 -220 12 -59 4 -92 2 -125 -10 -25
-9 -53 -16 -62 -16 -25 0 -12 28 15 33 29 6 -130 10 -261 7 -64 -1 -108 2
-116 9 -15 13 -49 4 -40 -10 3 -5 -2 -9 -11 -9 -9 0 -13 5 -10 10 8 12 -94 13
-114 1 -7 -5 -10 -14 -6 -21 5 -8 0 -11 -16 -10 -61 5 -88 0 -83 -15 4 -8 1
-15 -6 -15 -9 0 -11 10 -6 31 l6 30 -47 -3 c-29 -2 -48 -8 -51 -17 -3 -10 0
-12 14 -7 45 18 64 17 64 -3 0 -11 -5 -23 -10 -26 -18 -11 -10 -26 12 -23 15
2 24 -3 26 -13 4 -21 -47 -33 -55 -13 -6 16 -33 19 -33 4 0 -5 6 -10 13 -10
18 0 49 -34 40 -43 -13 -14 -33 -6 -33 12 0 18 -3 18 -50 6 -27 -7 -50 -11
-50 -9 0 3 -9 0 -20 -6 -11 -6 -20 -18 -20 -26 0 -8 5 -12 10 -9 6 3 10 -1 10
-11 0 -16 11 -16 54 2 16 6 18 4 13 -10 -4 -10 -7 -26 -7 -37 0 -10 -4 -19
-10 -19 -5 0 -10 7 -10 15 0 18 0 18 -38 0 -37 -19 -48 -46 -30 -77 12 -23 13
-22 18 12 4 29 10 36 33 38 15 2 27 -1 27 -7 0 -6 11 -11 24 -11 13 0 26 -6
29 -12 2 -7 8 -9 13 -5 5 4 2 12 -6 18 -13 8 -11 13 9 29 29 25 115 27 157 5
16 -8 37 -15 47 -15 21 0 23 -18 2 -26 -18 -7 -105 17 -105 28 0 4 -9 8 -20 8
-11 0 -17 -5 -15 -13 3 -6 -5 -17 -17 -22 -26 -12 -36 -35 -15 -35 8 0 20 -7
27 -15 7 -8 21 -15 31 -15 19 0 26 -15 11 -24 -4 -2 -34 2 -65 9 -50 12 -59
11 -64 -1 -3 -8 -13 -14 -23 -14 -13 0 -16 6 -12 25 5 29 1 30 -37 11 -41 -22
-84 -82 -76 -107 5 -15 13 -19 28 -15 12 3 33 6 46 6 20 0 21 2 11 15 -7 8
-22 15 -33 15 -15 0 -18 3 -10 11 17 17 113 -18 113 -42 0 -23 -19 -25 -35 -2
-10 14 -13 8 -19 -35 -8 -58 -30 -71 -41 -23 -5 26 -11 29 -61 35 -47 5 -59 3
-81 -14 -31 -24 -38 -19 -47 33 -8 42 -2 46 30 16 l23 -21 25 27 c14 15 26 32
26 37 0 15 -30 21 -54 10 -21 -9 -23 -8 -24 26 -1 30 1 33 9 20 11 -19 54 -24
64 -8 3 6 17 10 31 10 13 0 24 4 24 8 0 16 -13 21 -31 12 -12 -7 -20 -6 -25 1
-4 8 -9 7 -15 -2 -6 -11 -11 -11 -20 -2 -16 16 -3 33 25 33 24 0 31 19 41 110
1 14 6 33 10 43 4 10 2 30 -6 45 l-13 27 -4 -28 c-5 -38 -28 -44 -58 -16 -25
24 -26 24 -40 5 -20 -29 -18 -34 18 -38 40 -4 47 -23 12 -32 -20 -5 -32 -2
-48 13 -14 13 -26 17 -32 11 -18 -18 -34 4 -26 35 7 25 15 31 49 38 29 5 43
15 52 34 15 32 4 45 -15 19 -7 -11 -17 -16 -21 -12 -5 4 1 14 11 22 22 16 17
28 -8 18 -9 -3 -16 -15 -16 -25 0 -10 -7 -19 -15 -19 -9 0 -15 9 -15 25 0 18
-9 28 -32 39 -52 23 -76 28 -108 21 l-30 -7 0 -270 0 -270 24 15 c29 19 65 12
89 -19 9 -13 25 -23 35 -24 31 -2 77 -1 107 2 21 2 29 -1 27 -11 -2 -10 5 -12
23 -8 17 3 28 0 32 -9 6 -17 79 -19 89 -3 3 6 17 8 29 5 13 -3 27 -2 30 4 4 6
-6 10 -22 11 -15 0 -22 3 -15 6 6 2 12 10 12 17 0 7 16 18 36 24 32 10 37 9
41 -9 3 -10 14 -19 24 -19 11 0 19 -4 19 -9 0 -14 -41 -41 -62 -41 -9 0 -20
-5 -23 -11 -12 -18 3 -21 27 -5 23 15 38 13 38 -6 0 -5 -12 -14 -26 -20 -23
-11 -24 -13 -7 -19 10 -4 59 -3 108 2 59 5 94 4 102 -3 17 -14 9 -24 -27 -31
-21 -5 -28 -11 -24 -22 4 -10 0 -15 -10 -15 -9 0 -19 7 -22 15 -5 12 -15 14
-43 9 -61 -10 -71 -15 -71 -35 0 -12 -7 -19 -20 -19 -11 0 -20 7 -20 15 0 8 6
15 14 15 21 0 31 21 15 31 -8 4 -29 8 -47 7 -31 -1 -33 -3 -27 -27 4 -14 10
-28 14 -31 5 -3 5 -13 2 -23 -6 -15 -9 -16 -26 -3 -16 11 -17 17 -7 29 9 10
10 17 2 22 -5 3 -10 2 -10 -3 0 -13 -59 -24 -77 -14 -12 7 -12 10 1 21 9 8 25
11 36 8 30 -8 35 12 6 23 -31 12 -74 -2 -93 -30 -8 -11 -21 -20 -29 -20 -8 0
-14 -7 -14 -15 0 -8 -8 -15 -19 -15 -10 0 -35 -7 -56 -16 -34 -14 -39 -14 -55
1 -15 14 -19 14 -29 1 -15 -18 -6 -37 13 -30 7 3 16 -2 19 -11 6 -14 10 -14
43 0 42 17 64 19 64 5 0 -5 -9 -10 -20 -10 -11 0 -23 -7 -26 -15 -7 -16 -74
-22 -74 -6 0 5 -11 11 -25 13 -13 3 -22 2 -20 -2 6 -10 -33 -20 -51 -13 -22 8
-17 17 20 37 19 10 40 31 46 47 14 33 26 36 51 13 15 -14 20 -14 47 0 32 17
50 60 32 81 -8 10 -21 10 -52 3 -23 -5 -54 -8 -68 -7 -41 2 -45 0 -24 -16 18
-14 15 -15 -28 -9 -45 6 -48 5 -48 -17 0 -18 3 -20 12 -11 14 14 38 16 38 4 0
-5 -10 -14 -23 -19 -21 -10 -23 -18 -25 -87 -2 -63 0 -76 13 -76 19 0 20 -19
0 -26 -12 -5 -15 -34 -15 -170 l0 -164 4140 0 4140 0 0 4765 0 4765 -4140 0
-4140 0 1 -52z m3156 -1258 c6 -203 8 -217 27 -239 15 -16 16 -24 7 -35 -7 -8
-11 -22 -9 -32 2 -13 -8 -22 -38 -33 -23 -9 -49 -22 -58 -30 -9 -7 -16 -11
-16 -7 0 15 -58 -25 -88 -60 -37 -44 -40 -62 -11 -98 24 -31 12 -33 -40 -7
-54 28 -69 71 -75 215 -2 70 -1 114 4 106 13 -21 18 -11 34 71 8 41 19 88 26
104 13 35 60 80 92 91 13 4 36 18 52 31 20 16 38 23 60 21 l31 -3 2 -95z
m-1173 -200 c3 -16 12 -30 20 -30 7 0 17 -10 21 -22 4 -14 8 -18 12 -10 2 6
11 12 19 12 17 0 17 -2 2 -35 -11 -25 -28 -34 -28 -15 0 21 -27 9 -39 -17 -10
-21 -14 -24 -21 -13 -6 10 -12 11 -22 3 -19 -16 -88 -33 -88 -22 0 5 -4 9 -10
9 -5 0 -10 -9 -10 -20 0 -11 -5 -20 -11 -20 -5 0 -7 -4 -4 -10 3 -5 0 -10 -8
-10 -7 0 -19 12 -25 26 -8 16 -17 22 -24 18 -21 -13 -48 -11 -48 3 0 16 -17
17 -22 1 -3 -7 -11 2 -19 20 -7 18 -18 33 -24 33 -5 1 -21 2 -35 3 -14 1 -38
3 -55 4 -28 3 -93 47 -83 58 3 2 18 -1 34 -7 16 -7 34 -11 39 -10 6 2 46 4 90
5 73 1 80 3 77 21 -3 27 42 49 70 34 14 -8 28 -7 48 1 16 7 34 9 39 5 15 -9
14 -38 -4 -61 -21 -28 -19 -30 25 -29 37 1 72 15 37 15 -33 0 -15 54 18 55 6
0 9 8 9 18 -3 29 13 19 20 -13z m292 -92 l-7 -52 20 25 20 24 9 -25 9 -25 8
24 c5 17 10 20 18 12 16 -16 64 -13 71 4 6 17 96 22 96 5 0 -5 -13 -10 -30
-10 -35 0 -38 -10 -10 -28 26 -16 26 -31 -2 -29 -11 1 -23 9 -26 19 -6 25 -22
23 -22 -3 0 -16 -3 -19 -12 -11 -20 16 -117 6 -156 -16 -26 -15 -42 -8 -42 16
0 11 -6 6 -15 -12 -9 -16 -13 -37 -10 -46 3 -10 0 -30 -7 -46 -9 -18 -9 -29
-2 -31 12 -4 6 -62 -9 -81 -11 -13 -3 -27 16 -27 7 -1 10 -7 8 -15 -15 -57
-13 -67 13 -67 14 0 26 3 26 8 0 5 -7 9 -15 9 -18 0 -19 9 -4 30 9 12 12 13
16 1 5 -11 7 -11 14 0 8 11 11 11 20 -3 13 -24 27 -23 50 5 l18 22 1 -48 c0
-33 -4 -49 -15 -53 -8 -4 -15 -12 -15 -20 0 -8 -7 -14 -15 -14 -9 0 -15 -9
-15 -25 0 -14 7 -28 15 -31 9 -4 15 -19 15 -35 0 -22 5 -29 19 -29 11 0 23 -5
26 -10 5 -8 11 -7 21 1 11 9 11 15 3 25 -7 9 -7 14 -1 14 20 0 34 -28 23 -48
-5 -10 -7 -28 -4 -40 4 -18 13 -22 47 -24 39 -1 39 -1 7 -5 -19 -3 -45 -11
-57 -20 -23 -15 -24 -15 -24 16 0 17 -4 31 -10 31 -5 0 -10 -5 -10 -10 0 -6
-12 -22 -26 -35 -23 -21 -24 -25 -9 -25 23 0 11 -13 -16 -17 -16 -2 -20 1 -15
12 4 10 -1 15 -14 15 -11 0 -20 -6 -20 -12 0 -9 -3 -8 -9 2 -6 8 -8 17 -5 21
2 4 -2 19 -10 33 l-14 27 -4 -25 c-3 -14 -1 -29 4 -34 6 -6 7 -19 4 -30 -5
-14 -13 -18 -31 -14 -14 2 -25 7 -25 11 0 3 -7 14 -14 23 -10 14 -19 16 -47 8
-29 -8 -32 -7 -16 4 18 14 24 46 8 46 -5 0 -6 12 -2 28 4 15 4 40 0 55 -5 17
-3 39 5 57 12 29 12 29 29 10 15 -18 15 -21 0 -48 -14 -25 -15 -34 -4 -59 11
-28 15 -29 37 -19 13 6 24 17 24 25 0 11 -3 11 -15 1 -12 -10 -15 -9 -15 6 0
48 12 64 44 64 27 0 31 -3 33 -31 2 -24 -1 -30 -15 -27 -12 2 -16 11 -14 28 2
19 0 21 -7 10 -15 -24 -2 -70 20 -70 11 0 22 -7 26 -15 5 -13 8 -13 20 5 8 11
11 25 8 30 -4 6 -1 18 6 26 10 12 8 18 -9 30 -25 17 -30 64 -7 64 8 0 15 5 15
11 0 6 -6 9 -14 6 -8 -3 -20 1 -26 9 -9 10 -9 14 -1 15 6 1 17 2 24 3 15 1 23
46 8 46 -6 0 -11 -7 -11 -15 0 -9 -9 -15 -25 -15 -15 0 -28 -7 -32 -17 -6 -15
-8 -14 -14 7 -4 14 -7 42 -8 63 -1 21 -8 45 -17 54 -8 9 -13 22 -10 29 3 7 1
16 -4 19 -14 9 -1 56 21 81 20 21 26 74 9 74 -5 0 -10 -13 -10 -29 0 -29 -20
-43 -47 -34 -20 7 -16 25 12 57 14 16 25 32 25 37 0 16 57 71 88 84 17 8 32
19 32 24 0 6 3 11 6 11 4 0 3 -23 0 -52z m1235 -299 c19 -37 1 -125 -44 -212
-56 -106 -64 -119 -74 -126 -5 -3 -14 -18 -20 -33 -25 -56 -72 -19 -106 82 -3
8 -22 23 -43 34 -22 10 -47 22 -56 27 -26 13 -62 11 -84 -5 -16 -13 -17 -18
-6 -35 6 -12 12 -32 12 -46 0 -16 6 -25 15 -25 8 0 15 4 15 8 0 14 52 34 62
24 11 -11 -44 -72 -65 -72 -45 0 -97 -54 -97 -100 0 -27 -16 -25 -36 5 -22 34
-21 203 2 266 8 24 17 79 19 123 3 43 7 81 10 85 4 3 23 -13 43 -35 33 -38 40
-41 66 -33 16 4 40 6 55 4 14 -2 52 -7 84 -10 l58 -5 49 50 c42 44 53 50 89
50 31 0 43 -5 52 -21z m-1621 -1360 c0 -6 7 -9 15 -5 8 3 21 -1 29 -9 8 -8 22
-15 30 -15 21 0 20 -30 -1 -46 -24 -18 -36 -17 -29 1 3 8 1 15 -4 15 -6 0 -10
-9 -10 -19 0 -24 -29 -36 -37 -15 -4 12 -8 12 -13 4 -10 -17 -31 -3 -23 15 3
10 -1 15 -12 15 -11 0 -15 -5 -11 -15 3 -8 1 -15 -4 -15 -6 0 -10 7 -10 15 0
8 -4 15 -10 15 -5 0 -7 -6 -4 -14 3 -9 -3 -17 -15 -21 -12 -3 -19 -10 -16 -15
6 -10 -19 -18 -69 -22 -42 -4 -46 -28 -6 -28 24 0 33 -5 37 -20 3 -11 10 -20
17 -19 6 1 22 1 36 0 25 -2 25 -2 5 -19 -11 -9 -19 -25 -17 -36 3 -12 -1 -17
-10 -14 -7 3 -14 17 -16 31 -2 19 -9 27 -23 27 -10 0 -18 5 -16 11 1 7 -14 12
-38 13 -34 1 -40 4 -43 25 -3 18 0 22 12 18 11 -5 16 -1 16 13 0 13 7 20 19
20 11 0 23 5 27 12 5 7 3 8 -5 3 -9 -5 -12 -2 -9 11 2 11 11 18 21 18 9 -1 17
2 17 6 0 4 34 13 75 21 41 7 75 17 75 21 0 4 -5 8 -11 8 -5 0 -7 5 -4 10 8 14
35 13 35 -1z m430 -89 c13 -8 12 -10 -3 -10 -14 0 -17 -5 -12 -20 4 -14 2 -20
-8 -20 -8 0 -17 -9 -20 -20 -3 -13 0 -20 9 -20 8 0 14 4 14 10 0 5 7 7 15 4 8
-4 15 -13 15 -21 0 -11 -8 -14 -30 -11 -23 4 -30 1 -30 -13 0 -9 6 -17 13 -16
32 1 47 -4 47 -16 0 -10 24 -17 78 -23 58 -7 77 -13 77 -24 0 -8 4 -18 8 -21
4 -3 3 -17 -2 -32 -8 -19 -6 -28 5 -37 12 -10 14 -8 15 16 1 16 0 35 -1 43 -1
10 6 12 31 7 47 -9 58 -23 26 -35 -30 -11 -53 -46 -37 -56 5 -3 14 -4 19 0 13
7 91 -6 91 -15 0 -5 -13 -11 -29 -15 -23 -5 -27 -10 -23 -30 l4 -24 19 22 20
22 -3 -25 c-2 -17 -10 -26 -25 -28 -23 -3 -31 -17 -14 -24 27 -9 -98 -88 -139
-88 -9 0 -25 -7 -36 -15 -19 -14 -19 -14 2 -15 26 0 39 -37 20 -55 -7 -7 -41
-16 -77 -20 -41 -6 -56 -10 -42 -14 12 -3 31 -18 42 -32 l20 -26 -35 -6 c-19
-3 -45 -2 -57 3 -20 8 -20 9 11 16 18 3 35 11 38 15 9 16 -23 21 -63 10 -34
-10 -40 -9 -55 10 l-18 21 -20 -23 c-10 -13 -19 -27 -20 -31 0 -5 -7 -8 -15
-8 -8 0 -15 -6 -15 -14 0 -7 -8 -16 -17 -19 -10 -4 -38 -18 -62 -32 -41 -25
-44 -25 -63 -8 -16 14 -23 15 -38 5 -25 -16 -30 -15 -30 3 0 8 -4 15 -10 15
-5 0 -10 -7 -10 -15 0 -24 -28 -17 -33 8 -3 22 -4 22 -14 -3 -15 -36 -39 -55
-49 -39 -10 16 -5 415 6 463 8 37 -1 134 -15 156 -4 6 2 13 12 17 10 4 21 11
25 17 5 7 8 6 8 -3 0 -10 3 -11 13 -2 8 6 16 8 19 6 6 -6 -11 -61 -25 -82 -5
-9 -3 -13 7 -13 10 0 16 9 16 24 0 14 4 27 9 30 11 7 131 19 131 13 0 -2 -7
-21 -15 -40 -8 -20 -15 -39 -15 -42 0 -11 55 8 63 22 4 7 14 13 21 13 8 0 24
11 37 25 13 13 32 25 41 25 9 0 20 5 24 11 4 8 11 4 19 -11 9 -16 14 -19 20
-10 4 7 2 16 -6 21 -11 7 -9 9 6 10 11 1 26 1 33 0 7 -1 12 9 12 25 0 27 -1
27 -14 8 -21 -28 -26 -16 -19 48 l6 56 33 -5 c22 -4 34 -2 34 6 0 13 10 14 30
1z m3124 -490 c14 -13 -3 -30 -30 -30 -15 0 -24 -6 -24 -15 0 -9 10 -15 26
-15 33 0 29 -32 -5 -40 -38 -9 -37 -28 1 -32 21 -2 33 -8 33 -18 0 -17 -43
-25 -81 -16 -23 6 -24 11 -24 84 0 48 5 83 12 90 13 13 75 7 92 -8z m96 -47
c16 -27 30 -54 30 -62 0 -31 15 3 20 47 8 72 25 51 28 -34 4 -97 -8 -112 -48
-64 -16 19 -30 40 -30 46 0 6 -6 17 -14 23 -11 9 -15 3 -21 -34 -5 -36 -10
-45 -23 -43 -14 3 -17 14 -15 63 4 119 24 135 73 58z m2665 -767 c21 -20 22
-933 1 -961 -12 -16 -16 -17 -30 -6 -14 12 -16 64 -16 483 0 361 3 472 13 483
15 18 16 18 32 1z m-3525 -266 c0 -16 5 -30 11 -30 7 0 0 -9 -14 -20 -14 -11
-29 -20 -34 -20 -4 0 -14 -9 -21 -21 -7 -12 -16 -18 -19 -15 -3 3 -18 -3 -33
-14 -16 -11 -32 -20 -38 -20 -5 0 -15 -7 -22 -15 -9 -10 -9 -15 -1 -15 23 0
10 -18 -27 -34 -20 -9 -45 -30 -54 -47 -10 -17 -22 -27 -28 -24 -5 3 -10 1
-10 -4 0 -6 9 -11 20 -11 28 0 25 -18 -4 -26 -13 -3 -26 -14 -29 -24 -5 -20 6
-27 38 -25 11 1 35 2 53 3 21 1 32 7 32 17 0 8 9 15 19 15 11 0 27 13 37 29
10 16 26 32 36 34 10 3 18 14 18 27 0 17 4 20 19 15 23 -7 45 26 36 54 -4 14
4 22 32 34 70 29 112 41 120 33 5 -5 2 -11 -4 -13 -8 -3 -11 -14 -7 -28 5 -20
1 -25 -19 -30 -16 -4 -31 -20 -43 -47 -10 -22 -28 -47 -41 -55 -26 -17 -30
-33 -9 -33 30 0 27 -23 -8 -59 -20 -20 -36 -41 -36 -47 0 -5 -22 -27 -49 -48
-27 -22 -54 -50 -60 -63 -6 -12 -15 -23 -21 -23 -5 0 -10 -21 -10 -46 0 -32
-4 -44 -12 -41 -8 2 -12 15 -10 30 4 28 -12 37 -21 14 -3 -9 -16 -12 -37 -9
-21 3 -31 1 -26 -6 11 -19 -5 -41 -39 -52 -18 -6 -39 -9 -46 -8 -9 2 -15 -8
-17 -29 -2 -18 -6 -34 -10 -34 -35 -7 -52 -4 -52 7 0 8 -6 14 -12 14 -19 -1
-48 -25 -48 -41 0 -11 2 -11 10 1 8 13 10 13 10 -1 0 -26 -55 -79 -82 -79 -34
0 -41 -10 -21 -33 17 -18 17 -19 0 -28 -9 -6 -17 -19 -17 -30 0 -13 -8 -23
-21 -26 -12 -4 -18 -11 -15 -20 3 -8 6 -19 6 -24 0 -18 42 -9 47 11 3 11 11
20 19 20 7 0 17 7 22 16 6 10 22 16 45 16 38 0 49 11 21 22 -22 8 -8 26 21 26
25 0 43 -18 29 -29 -5 -3 -9 -12 -10 -18 -1 -7 -2 -22 -2 -33 -2 -14 -12 -21
-37 -26 -41 -7 -102 -58 -84 -70 6 -3 15 -1 19 6 8 14 60 10 61 -5 0 -5 -10
-12 -22 -15 -16 -4 -23 -13 -23 -33 -2 -39 9 -54 28 -38 22 18 63 -4 45 -25
-9 -11 -9 -17 1 -29 10 -12 8 -20 -9 -41 -12 -15 -21 -30 -21 -34 0 -11 -65
-107 -103 -152 -61 -72 -84 -103 -100 -134 -9 -17 -23 -34 -32 -37 -8 -4 -15
-16 -15 -27 0 -11 -4 -20 -8 -20 -10 0 -32 -45 -38 -77 -3 -13 -2 -23 2 -23 8
0 68 43 72 51 2 4 26 19 55 34 29 14 82 50 119 79 37 30 84 60 105 66 50 17
142 95 159 137 8 18 23 37 34 43 11 6 23 22 26 35 3 14 10 23 14 20 5 -3 11
-1 15 5 4 6 10 8 15 5 9 -6 22 29 24 65 1 15 7 25 16 25 16 0 22 -66 9 -102
-10 -27 6 -40 27 -22 8 6 17 9 21 6 6 -7 -19 -75 -38 -107 -5 -8 -20 -37 -33
-65 -13 -27 -36 -67 -50 -88 -14 -21 -26 -43 -26 -50 0 -7 -9 -20 -20 -30 -11
-9 -20 -24 -20 -33 0 -11 -6 -15 -20 -11 -19 5 -24 -3 -21 -30 2 -17 -33 -84
-62 -119 -13 -16 -30 -47 -37 -69 -23 -73 -89 -201 -148 -291 -74 -112 -294
-338 -349 -358 -21 -7 -83 -30 -137 -50 -54 -19 -129 -39 -165 -42 -40 -4 -71
-12 -78 -21 -10 -12 -18 -13 -42 -5 -40 14 -42 -6 -3 -30 72 -46 92 -55 174
-80 68 -21 91 -23 333 -22 143 0 310 4 372 8 85 7 119 6 143 -4 17 -7 27 -17
23 -21 -4 -4 -50 -13 -101 -19 -102 -13 -168 -41 -157 -68 8 -23 -25 -42 -63
-36 -19 4 -38 1 -47 -6 -8 -7 -20 -8 -27 -4 -22 14 -39 16 -183 23 -77 3 -145
9 -151 13 -6 4 -76 17 -155 28 -201 28 -260 42 -292 66 -31 25 -33 31 -11 55
13 15 14 29 3 116 -13 111 -13 163 1 177 6 6 10 20 10 32 0 31 25 48 59 41 39
-8 45 11 26 83 -24 91 -20 124 21 169 33 37 35 43 29 84 -11 69 9 75 74 21 58
-48 85 -55 101 -25 14 26 -31 81 -67 81 -25 0 -105 49 -135 83 -20 22 -24 95
-8 143 5 16 11 124 13 239 4 183 7 217 25 255 11 25 23 66 26 91 4 26 13 55
21 65 8 11 15 39 15 63 0 57 36 160 64 187 12 12 43 31 69 42 39 17 47 25 47
47 0 27 -1 27 -52 20 -61 -8 -97 -37 -102 -80 -5 -43 -26 -44 -26 -1 l0 36
-82 2 c-46 1 -125 0 -175 -1 -57 -2 -93 1 -93 7 0 5 10 12 23 16 36 9 208 6
257 -5 57 -13 84 -6 98 26 17 37 15 44 -13 55 -30 11 -31 24 -6 87 10 26 24
75 31 108 15 76 18 81 103 193 77 102 93 115 119 101 14 -7 15 -14 8 -34 -11
-28 -8 -30 23 -13 12 6 65 15 117 18 107 8 187 38 176 67 -4 8 -1 22 5 29 8
10 6 14 -13 19 -12 3 -34 4 -47 3 -13 -2 -26 2 -28 8 -6 16 136 44 226 44 51
0 89 5 110 16 22 11 44 14 71 9 28 -5 46 -2 62 9 12 9 38 16 58 17 19 0 64 9
100 19 97 27 110 26 110 -10z m-3100 -288 l115 -7 -3 -30 c-6 -49 -25 -80 -52
-83 -30 -5 -55 -23 -41 -31 6 -4 2 -22 -9 -46 -18 -38 -19 -39 -25 -15 -3 14
-7 35 -8 48 -1 19 -7 22 -40 22 -23 0 -36 -4 -32 -10 3 -5 -3 -10 -14 -10 -13
0 -21 7 -22 18 -1 15 -2 15 -6 -1 -5 -18 -13 -18 -116 -11 -62 4 -132 8 -156
8 -53 1 -67 23 -19 29 18 2 -4 5 -50 5 -56 1 -81 -1 -77 -8 4 -6 2 -16 -3 -23
-5 -7 -12 -24 -16 -39 -6 -25 -4 -28 21 -28 l28 0 -24 -19 c-13 -10 -20 -21
-15 -24 5 -2 68 -8 139 -12 72 -3 153 -10 180 -15 28 -5 94 -12 148 -15 99 -7
118 -17 70 -36 -16 -7 -23 -13 -15 -16 7 -3 12 -24 12 -53 0 -39 -4 -52 -19
-60 -30 -15 -71 -13 -71 5 0 10 10 15 28 15 42 0 57 14 37 34 -19 18 -51 21
-60 5 -5 -7 -12 -6 -23 4 -23 20 -398 31 -491 14 -61 -11 -64 -10 -83 12 -12
15 -16 31 -12 45 10 32 71 104 96 111 20 7 20 12 15 86 -7 88 -11 81 74 119
54 24 62 25 240 23 101 -2 236 -6 299 -11z m-1100 -308 c0 -8 4 -13 9 -9 5 3
12 1 16 -5 3 -5 23 -10 43 -10 52 -1 106 -30 110 -58 3 -20 0 -22 -25 -16 -19
5 -25 3 -18 -4 11 -12 231 -18 257 -7 22 9 52 3 50 -10 0 -5 -11 -13 -24 -16
-21 -6 -21 -7 9 -14 44 -10 51 -21 73 -107 10 -40 21 -80 25 -89 3 -10 1 -19
-8 -22 -10 -4 -14 3 -15 24 -1 49 -12 72 -27 59 -16 -13 -30 3 -21 25 4 10 -1
15 -14 15 -11 0 -20 -4 -20 -10 0 -14 -36 -13 -59 2 -15 9 -23 9 -36 -2 -13
-10 -13 -15 -3 -22 8 -5 2 -6 -14 -2 -16 3 -28 2 -28 -4 0 -5 -8 -12 -17 -15
-10 -2 -26 -8 -35 -12 -10 -4 -18 -3 -18 2 0 6 14 14 32 19 40 12 53 40 13 30
-16 -4 -33 -2 -41 5 -11 9 -24 8 -58 -5 -24 -9 -71 -18 -105 -19 -33 -1 -61
-5 -61 -9 0 -12 -48 -10 -55 2 -3 6 3 10 14 10 22 0 61 28 61 44 0 6 -5 5 -12
-2 -14 -14 -28 -16 -28 -4 0 5 18 15 40 22 35 12 38 14 23 26 -15 10 -22 9
-45 -8 -16 -10 -28 -29 -28 -40 0 -16 -4 -19 -22 -13 -13 3 -29 7 -35 7 -19 2
-16 16 5 21 13 4 12 5 -5 6 -28 1 -31 -5 -34 -62 -2 -31 -8 -48 -18 -52 -14
-6 -14 -8 2 -16 9 -6 17 -21 17 -34 0 -14 5 -25 10 -25 6 0 10 -7 10 -15 0 -9
10 -15 23 -16 20 -1 20 -2 2 -6 -47 -12 -59 -45 -24 -63 27 -15 39 -2 15 16
-11 7 -17 16 -14 20 3 3 14 -3 24 -14 11 -11 30 -25 42 -31 13 -7 21 -15 19
-18 -3 -2 -15 1 -27 7 -18 10 -24 9 -31 -1 -13 -21 -11 -29 9 -29 10 0 22 -3
26 -7 4 -4 19 -8 34 -9 15 -1 32 -3 38 -5 7 -2 11 1 10 6 0 6 -9 9 -18 8 -10
-2 -18 4 -18 12 0 15 16 19 53 16 10 -2 17 5 17 14 0 9 4 14 9 11 4 -3 8 4 7
15 0 11 -8 24 -16 29 -22 14 2 11 25 -3 24 -14 26 -47 5 -64 -8 -7 -11 -13 -6
-13 5 0 2 -8 -6 -17 -8 -10 -18 -30 -22 -45 -10 -42 -64 -37 -116 10 -10 9
-34 33 -55 52 l-36 34 6 -27 c8 -29 -3 -35 -23 -15 -10 10 -14 8 -18 -9 -4
-12 -12 -19 -19 -17 -7 3 -16 0 -20 -5 -12 -20 -25 0 -18 27 8 35 21 42 50 31
18 -6 23 -5 23 6 0 9 6 25 13 36 10 17 10 23 0 26 -7 3 -13 20 -13 40 0 31 -2
34 -22 27 -13 -4 -26 -12 -30 -18 -13 -19 -9 -36 7 -30 9 4 18 -1 21 -10 10
-26 -1 -28 -29 -5 -43 33 -29 113 23 132 8 3 0 6 -17 6 -31 1 -33 3 -33 35 0
44 29 57 60 26 28 -28 38 -18 33 33 -5 38 -2 46 21 64 14 12 25 29 25 39 -1
17 -2 17 -6 2 -2 -10 -10 -18 -17 -18 -7 0 -25 -12 -39 -26 -28 -28 -47 -25
-47 7 0 10 -5 19 -12 19 -24 0 7 18 36 22 16 2 31 9 34 17 3 10 -2 11 -18 6
-15 -5 -26 -2 -31 6 -12 19 -11 39 1 39 6 0 19 9 30 20 11 11 29 20 39 20 11
0 21 6 24 13 3 9 12 8 35 -5 38 -22 39 -22 45 3 6 23 27 17 27 -7z m1035 -370
c22 -22 21 -123 -2 -139 -13 -10 -16 -31 -17 -107 -1 -59 3 -100 11 -109 17
-20 12 -140 -7 -161 -8 -10 -21 -18 -28 -18 -11 0 -13 13 -7 63 3 34 9 168 12
297 3 152 8 227 14 212 5 -13 16 -30 24 -38z m3570 -651 c-1 -21 -4 -40 -5
-43 -1 -3 -2 -12 -1 -22 1 -9 -3 -19 -9 -23 -5 -3 -10 -16 -10 -27 0 -25 -64
-163 -79 -173 -6 -3 -11 -14 -11 -23 0 -9 -6 -29 -14 -43 -25 -48 -96 -245
-96 -266 0 -11 -7 -26 -15 -33 -9 -7 -13 -20 -10 -30 3 -9 -4 -27 -16 -41 -12
-13 -34 -43 -50 -66 -27 -39 -32 -42 -56 -32 -54 20 -202 -9 -241 -48 -11 -10
-25 -13 -50 -8 -35 6 -83 -7 -112 -31 -15 -12 -110 -31 -110 -21 0 9 123 102
175 132 103 59 255 185 255 211 0 8 4 14 8 14 5 0 26 27 48 60 21 33 42 60 46
60 3 0 15 15 26 33 12 17 35 52 53 77 18 25 70 101 116 170 45 69 90 136 100
150 10 13 21 32 25 42 4 10 14 18 22 18 11 0 14 -10 11 -37z m-2375 -1223 c58
-17 67 -26 47 -48 -26 -28 -19 -86 9 -75 8 3 14 -1 14 -11 0 -15 -3 -15 -30
-1 -20 10 -30 23 -30 38 0 16 -3 18 -9 8 -6 -9 -11 -10 -15 -3 -4 6 -14 8 -23
5 -10 -4 -22 3 -34 18 -10 13 -21 24 -26 24 -19 2 -53 17 -53 24 0 26 89 38
150 21z m-164 -26 c-8 -22 17 -44 43 -37 32 8 27 -21 -6 -34 -24 -9 -17 -11
50 -12 75 -1 77 -2 77 -26 0 -14 -5 -25 -11 -25 -6 0 -9 -5 -7 -11 2 -6 6 -9
9 -7 3 2 14 -4 24 -12 9 -8 27 -19 39 -25 14 -7 20 -18 18 -33 -3 -18 3 -23
27 -28 17 -4 36 -13 42 -20 7 -9 32 -14 68 -14 31 0 81 -6 111 -14 47 -12 67
-12 152 1 54 9 98 19 98 24 0 5 -4 9 -10 9 -5 0 -10 20 -10 45 0 24 -7 63 -16
85 -10 25 -14 54 -11 75 3 19 1 37 -4 40 -5 4 -9 13 -9 21 0 23 37 8 91 -37
34 -29 54 -39 81 -39 19 0 55 -7 79 -15 110 -39 417 -81 759 -104 96 -6 101
-8 65 -16 -22 -6 -139 -10 -260 -9 -202 1 -230 3 -345 28 -159 36 -295 40
-358 12 -23 -10 -42 -26 -42 -34 0 -15 13 -14 139 8 54 10 69 9 100 -4 43 -19
249 -40 298 -31 25 4 40 2 52 -9 12 -11 55 -17 169 -22 83 -4 152 -11 152 -15
0 -29 -586 10 -625 41 -15 11 -76 24 -110 22 -16 -1 -54 -10 -83 -19 -42 -13
-50 -18 -41 -29 6 -8 16 -14 21 -14 20 0 68 -42 68 -59 0 -30 -45 -74 -68 -67
-11 4 -23 2 -27 -4 -3 -5 -14 -10 -24 -10 -10 0 -21 -9 -24 -20 -8 -32 -25
-23 -33 17 l-7 37 -20 -50 c-11 -28 -19 -69 -18 -98 1 -32 -4 -55 -14 -67 -13
-14 -14 -19 -3 -26 7 -4 22 -24 32 -43 11 -19 34 -53 52 -75 17 -22 44 -63 59
-90 22 -42 25 -55 16 -78 -6 -15 -17 -27 -26 -27 -8 0 -15 -5 -15 -10 0 -6 -7
-6 -18 1 -12 8 -17 20 -14 35 4 23 3 24 -41 18 -45 -6 -47 -6 -102 50 -31 31
-60 56 -64 56 -5 0 -14 7 -21 15 -18 22 -39 18 -51 -9 -15 -31 -10 -38 93
-144 91 -94 138 -155 138 -179 0 -9 -6 -13 -14 -10 -8 3 -16 -2 -19 -14 -3
-11 -14 -19 -26 -19 -12 0 -21 -4 -21 -10 0 -5 -4 -10 -8 -10 -5 0 -7 13 -4
29 3 26 0 31 -35 46 -74 33 -83 38 -83 52 0 7 -9 13 -20 13 -11 0 -20 -4 -20
-10 0 -19 -21 -10 -30 13 -5 12 -9 18 -9 13 -1 -6 -7 -1 -15 10 -10 13 -13 33
-9 61 5 38 3 42 -25 57 -58 30 -84 19 -97 -42 -7 -32 -3 -37 72 -111 77 -76
167 -195 160 -214 -5 -15 -68 -47 -93 -47 -12 0 -25 10 -32 25 -6 14 -19 25
-27 25 -23 0 -60 46 -97 119 -17 34 -39 66 -47 69 -9 3 -24 12 -34 21 -17 14
-20 14 -38 -9 -25 -33 -24 -50 4 -50 31 0 85 -54 96 -98 29 -110 30 -122 9
-158 -16 -28 -26 -34 -54 -34 -29 0 -36 5 -48 34 -8 19 -18 61 -21 93 -4 32
-16 85 -26 118 -10 33 -19 85 -19 115 0 31 -7 83 -16 115 -8 33 -20 96 -26
140 -6 44 -14 107 -19 140 -5 33 -11 78 -14 100 -3 22 -7 46 -10 54 -3 8 19
37 55 72 33 31 60 61 60 65 0 4 -7 15 -15 24 -13 14 -24 16 -72 8 -78 -12 -88
0 -101 117 -6 50 -14 102 -17 118 -6 23 -4 27 14 27 11 0 21 6 21 13 0 7 16
19 35 26 19 7 35 17 35 22 0 5 5 9 11 9 6 0 8 -7 5 -16z m3300 -426 c4 -6 3
-13 -3 -15 -6 -2 -8 -13 -6 -25 8 -26 -14 -39 -53 -32 -18 3 -35 1 -38 -5 -4
-6 -25 -15 -47 -21 -22 -6 -48 -19 -58 -29 -21 -21 -75 -33 -146 -33 -37 0
-53 -6 -81 -30 -19 -16 -34 -36 -34 -44 0 -8 -9 -19 -20 -26 -11 -7 -20 -17
-20 -23 -1 -17 -100 -78 -138 -85 -32 -5 -37 -9 -34 -30 8 -70 -3 -98 -32 -87
-20 8 -21 56 -2 100 29 70 160 177 297 244 71 34 371 150 396 152 6 1 15 -4
19 -11z m97 -257 c-7 -26 -88 -114 -133 -144 -41 -27 -73 -52 -106 -84 -15
-15 -24 -18 -27 -10 -2 7 -15 2 -36 -16 -18 -15 -39 -27 -46 -27 -17 0 -55
-61 -55 -87 0 -11 -23 -41 -51 -67 -39 -36 -60 -47 -91 -50 -41 -4 -62 -21
-53 -43 2 -7 -3 -13 -13 -13 -18 -1 -52 -23 -52 -34 0 -3 7 -6 15 -6 20 0 30
-26 17 -43 -5 -6 -11 -20 -13 -30 -4 -16 -6 -16 -26 -2 -52 36 -8 134 98 219
26 21 74 65 106 98 32 32 81 74 110 94 29 19 55 39 58 44 3 5 45 36 93 69 48
33 111 83 141 110 54 51 73 57 64 22z m-3723 -408 c23 -5 21 -7 -19 -22 -33
-13 -41 -20 -30 -27 36 -23 62 -33 70 -28 6 3 16 0 24 -6 10 -8 28 -10 52 -5
21 4 83 9 138 11 79 3 104 1 119 -11 28 -21 8 -42 -24 -25 -16 9 -25 9 -36 0
-8 -7 -23 -9 -36 -5 -39 12 -117 15 -123 5 -4 -6 9 -10 31 -10 45 0 38 -12 -8
-15 -18 -1 -39 5 -47 13 -14 13 -16 12 -22 -9 -7 -24 -7 -24 -8 -1 -1 12 -5
22 -10 22 -5 0 -17 3 -26 7 -14 5 -16 2 -10 -16 6 -20 4 -22 -17 -20 -12 2
-34 -1 -48 -6 l-25 -8 23 -8 c12 -5 22 -13 22 -19 0 -15 -32 -12 -54 5 -22 17
-66 20 -66 5 0 -5 5 -10 11 -10 6 0 9 -7 5 -15 -4 -10 1 -14 17 -12 16 1 21
-3 19 -15 -3 -22 24 -24 35 -4 7 12 11 12 26 1 17 -12 15 -15 -22 -31 -23 -10
-41 -23 -41 -28 0 -6 -5 -3 -11 7 -6 9 -14 15 -20 12 -16 -10 -31 5 -19 20 19
23 -19 88 -47 78 -10 -4 -14 0 -11 13 2 16 -2 18 -26 16 -16 -2 -32 2 -36 8
-12 20 -110 0 -133 -26 -11 -13 -29 -24 -39 -24 -21 0 -24 -30 -7 -58 14 -22
-2 -87 -22 -87 -8 0 -13 8 -11 20 2 11 6 55 9 98 4 66 8 77 24 77 10 0 30 15
44 34 15 19 34 34 43 34 9 -1 40 2 68 6 31 5 54 4 58 -2 3 -5 33 -10 66 -11
50 0 61 3 71 20 6 11 8 27 5 34 -2 7 -3 15 -1 17 6 6 48 7 75 1z"/>
<path d="M2080 5559 c0 -12 -67 -39 -98 -39 -14 0 -34 -7 -44 -17 -17 -15 -18
-15 -18 10 0 34 -6 34 -42 -3 -35 -37 -29 -50 20 -50 20 0 50 -7 66 -15 44
-23 66 -19 133 27 61 41 70 58 32 58 -10 0 -19 5 -19 11 0 7 7 8 18 4 32 -12
53 -14 50 -4 -2 6 -8 11 -13 11 -6 0 -14 3 -20 8 -13 10 -65 10 -65 -1z"/>
<path d="M3835 3631 c-22 -5 -35 -17 -50 -45 -14 -27 -31 -43 -54 -51 -19 -6
-45 -22 -60 -36 -14 -14 -43 -36 -63 -48 -21 -12 -38 -26 -38 -31 0 -4 -21
-29 -46 -55 -25 -26 -43 -49 -40 -52 7 -7 43 15 49 31 3 8 22 18 41 22 33 6
51 24 25 24 -5 0 -7 5 -3 11 3 6 15 8 26 6 11 -3 28 -2 37 3 9 5 27 11 41 14
30 6 120 87 120 107 0 28 25 69 43 69 9 0 17 6 17 14 0 20 -10 23 -45 17z"/>
<path d="M4048 3556 c-22 -16 -24 -38 -3 -30 8 4 15 1 15 -4 0 -10 -10 -17
-87 -58 -18 -10 -33 -24 -33 -31 0 -7 -4 -13 -8 -13 -4 0 -29 -21 -55 -46 -26
-25 -51 -43 -56 -40 -5 3 -11 -12 -13 -34 -4 -44 4 -50 25 -20 8 11 17 17 20
14 9 -9 78 36 105 68 13 15 32 30 43 33 13 5 18 12 14 23 -7 18 11 32 44 32
15 0 21 5 18 13 -3 7 4 19 14 25 19 12 26 42 10 42 -5 0 -11 9 -14 20 -6 23
-15 25 -39 6z"/>
<path d="M4105 2642 c-2 -10 -25 -30 -50 -45 -25 -16 -45 -32 -45 -37 0 -4 -9
-10 -20 -13 -12 -3 -20 -14 -20 -25 0 -29 -20 -38 -21 -10 -1 20 -2 21 -6 3
-7 -29 -23 -45 -45 -45 -16 0 -19 -5 -13 -28 4 -20 1 -33 -10 -42 -8 -7 -15
-28 -15 -46 0 -19 -5 -43 -12 -54 -7 -10 -9 -22 -5 -26 9 -9 57 24 57 40 0 7
8 21 19 30 10 9 19 28 19 42 0 30 55 86 76 78 16 -6 87 62 121 116 13 21 29
41 35 45 22 14 9 31 -25 32 -24 1 -36 -4 -40 -15z"/>
<path d="M96 7833 c-4 -49 -2 -90 3 -97 5 -6 6 -27 2 -46 -7 -34 -8 -35 -54
-33 -26 1 -47 -2 -47 -5 1 -18 29 -42 49 -42 25 0 26 -7 5 -31 -9 -10 -13 -23
-9 -28 11 -18 32 -12 40 12 6 21 7 20 16 -10 7 -23 14 -31 25 -26 9 3 21 -3
30 -16 8 -11 23 -21 32 -21 16 1 16 1 0 11 -22 12 -23 32 -3 49 23 19 19 57
-6 63 -13 3 -18 10 -14 17 5 7 11 8 17 2 13 -13 58 -3 58 14 0 15 -66 8 -87
-9 -10 -7 -13 0 -13 30 0 21 -5 44 -12 51 -8 8 -9 18 -1 35 7 14 8 29 2 38 -5
8 -9 37 -9 66 0 85 -17 69 -24 -24z"/>
<path d="M196 6508 c-9 -17 -16 -37 -16 -43 0 -7 -7 -18 -16 -26 -9 -7 -14
-22 -11 -36 2 -13 0 -23 -4 -23 -5 0 -9 5 -9 11 0 16 -57 4 -76 -16 -18 -17
-34 -20 -34 -5 0 6 -7 10 -15 10 -22 0 -18 -17 5 -23 20 -5 28 -27 10 -27 -5
0 -10 -7 -10 -15 0 -8 -5 -15 -12 -15 -6 0 -9 -2 -7 -5 10 -9 49 8 49 21 0 8
10 14 25 14 29 0 34 16 8 23 -15 4 -15 5 2 6 11 0 33 -6 49 -14 15 -8 35 -15
43 -15 12 0 13 -3 5 -13 -17 -20 -26 -93 -13 -101 20 -13 -16 -54 -43 -49 -13
3 -27 0 -30 -6 -5 -7 4 -11 23 -11 17 0 31 -4 31 -10 0 -5 -9 -10 -21 -10 -11
0 -27 -7 -36 -15 -21 -21 -48 -15 -48 12 0 12 -3 25 -7 29 -5 4 -8 -9 -8 -28
0 -35 1 -36 43 -40 23 -3 47 -1 53 3 6 5 14 6 17 2 4 -3 14 0 23 8 14 11 18
11 29 -4 15 -20 25 -12 25 20 0 16 6 23 20 23 13 0 20 7 20 20 0 24 -8 25 -32
3 -23 -20 -32 -12 -24 22 7 26 41 36 48 13 3 -7 8 7 12 31 8 51 4 58 -17 36
-17 -17 -37 -20 -37 -6 0 5 -3 16 -6 24 -4 11 2 16 17 19 24 3 48 33 36 45 -4
4 -17 2 -27 -5 -11 -7 -22 -12 -25 -12 -3 0 -5 31 -5 68 0 56 4 72 20 87 11
10 20 24 20 31 0 7 6 15 13 17 6 3 0 6 -15 6 -20 1 -30 -6 -42 -31z"/>
<path d="M2300 5206 c-6 -8 -21 -16 -33 -18 -16 -2 -23 -11 -25 -32 -2 -16
-11 -40 -20 -53 -13 -21 -13 -26 -1 -34 9 -6 10 -9 2 -9 -7 0 -10 -7 -7 -15 8
-20 24 -9 25 18 1 20 2 21 6 2 3 -11 10 -23 17 -27 7 -5 5 -8 -6 -8 -10 0 -18
-4 -18 -9 0 -5 -9 -11 -19 -14 -21 -5 -26 -41 -9 -64 5 -6 5 -14 -2 -18 -5 -3
-10 -19 -10 -35 0 -23 4 -28 20 -25 14 3 20 -2 20 -15 0 -13 -5 -17 -20 -13
-11 3 -20 0 -20 -6 0 -6 4 -11 9 -11 5 0 8 -22 7 -50 -2 -27 2 -61 9 -74 10
-18 10 -27 2 -35 -9 -9 -9 -14 1 -20 10 -6 10 -10 -2 -21 -18 -14 -12 -30 10
-30 10 0 14 12 14 40 0 43 29 84 52 75 16 -6 15 -78 -1 -83 -6 -2 -16 -12 -21
-23 -8 -15 -7 -17 4 -13 8 3 17 12 20 20 8 22 29 17 23 -6 -8 -30 16 -24 31 8
10 23 10 29 -3 38 -8 6 -15 14 -15 17 0 5 82 -3 89 -9 3 -2 -5 -14 -17 -27
-30 -31 -28 -47 6 -47 25 0 29 5 40 46 12 44 11 49 -9 70 -14 15 -34 24 -52
24 -25 0 -28 2 -17 15 10 12 16 13 27 4 7 -7 14 -10 16 -8 21 38 27 58 33 114
4 36 11 68 15 71 5 3 9 25 9 50 0 28 -4 43 -10 39 -5 -3 -10 -2 -10 3 0 6 7
12 15 16 12 4 15 23 15 85 0 74 -1 79 -20 74 -11 -3 -27 0 -35 7 -8 6 -23 9
-34 5 -12 -4 -30 0 -43 9 -28 20 -42 20 -58 2z"/>
<path d="M9 5066 c7 -8 21 -16 31 -18 15 -2 17 -7 10 -18 -7 -12 -12 -12 -22
-2 -6 6 -16 12 -20 12 -10 0 -11 -65 -2 -109 5 -26 11 -31 35 -31 15 0 32 7
36 15 8 13 12 13 28 1 17 -12 14 -14 -34 -25 -29 -6 -57 -9 -62 -5 -5 3 -9
-31 -9 -80 l0 -85 55 2 c31 1 59 7 63 13 6 10 44 27 63 29 3 0 13 8 23 18 10
9 29 17 42 17 21 0 24 4 19 20 -5 14 -2 20 9 20 10 0 16 9 16 24 0 14 5 28 12
32 8 5 7 10 -4 18 -23 17 -27 61 -6 61 9 0 23 9 31 19 14 19 15 19 68 -6 64
-31 91 -42 102 -40 11 3 8 -16 -4 -24 -6 -3 -15 -1 -19 6 -4 7 -13 9 -19 5 -9
-5 -9 -10 -1 -20 17 -20 45 -24 66 -8 15 11 17 17 6 33 -17 28 -17 28 36 22
43 -5 46 -4 33 11 -7 10 -21 17 -30 17 -9 0 -22 5 -28 11 -13 13 -33 4 -33
-17 0 -16 -16 -19 -25 -4 -3 6 -19 10 -35 10 -38 0 -60 9 -60 25 0 26 -20 26
-57 0 -43 -29 -60 -31 -99 -10 -25 13 -26 15 -8 15 12 0 27 6 33 14 10 12 3
13 -43 9 -37 -3 -61 0 -78 10 -12 8 -47 18 -77 21 -48 6 -53 5 -42 -8z"/>
<path d="M2323 4202 c-27 -4 -29 -17 -8 -38 18 -19 20 -34 3 -30 -7 1 -10 1
-5 -1 24 -14 -4 -20 -91 -19 -70 1 -104 -3 -115 -13 -10 -7 -17 -9 -17 -3 0
14 -180 9 -205 -6 -24 -14 -22 -14 85 -17 74 -2 85 -4 82 -20 -3 -14 2 -16 30
-10 44 10 115 7 140 -6 10 -6 35 -9 55 -7 27 2 36 -1 38 -14 2 -9 -5 -18 -16
-21 -13 -3 -19 -14 -19 -32 0 -15 4 -24 10 -20 6 3 10 14 10 25 0 10 7 20 15
24 9 3 15 19 15 38 1 18 7 64 14 101 7 37 10 69 7 70 -3 2 -16 1 -28 -1z"/>
</g>
</svg>
